<?xml version="1.0" encoding="utf-8"?>
<!-- Generator: Adobe Illustrator 27.5.0, SVG Export Plug-In . SVG Version: 6.00 Build 0)  -->
<svg version="1.1" xmlns="http://www.w3.org/2000/svg" xmlns:xlink="http://www.w3.org/1999/xlink" x="0px" y="0px"
	 viewBox="0 0 750 500" style="enable-background:new 0 0 750 500;" xml:space="preserve">
<g id="Background_complete">
	<path style="fill:#E0E0E0;" d="M673.734,339.783H492.988c-3.232,0-5.862-2.63-5.862-5.862V70.647c0-3.232,2.63-5.862,5.862-5.862
		h180.746c3.232,0,5.862,2.629,5.862,5.862v263.273C679.596,337.153,676.966,339.783,673.734,339.783z M492.988,65.035
		c-3.095,0-5.612,2.518-5.612,5.612v263.273c0,3.095,2.518,5.612,5.612,5.612h180.746c3.095,0,5.612-2.518,5.612-5.612V70.647
		c0-3.094-2.518-5.612-5.612-5.612H492.988z M465.306,339.783H284.56c-3.232,0-5.862-2.63-5.862-5.862V70.647
		c0-3.232,2.629-5.862,5.862-5.862h180.747c3.232,0,5.862,2.629,5.862,5.862v263.273
		C471.168,337.153,468.538,339.783,465.306,339.783z M284.56,65.035c-3.094,0-5.612,2.518-5.612,5.612v263.273
		c0,3.095,2.518,5.612,5.612,5.612h180.747c3.095,0,5.612-2.518,5.612-5.612V70.647c0-3.094-2.518-5.612-5.612-5.612H284.56z
		 M257.012,339.783H76.266c-3.232,0-5.862-2.63-5.862-5.862V70.647c0-3.232,2.629-5.862,5.862-5.862h180.746
		c3.232,0,5.862,2.629,5.862,5.862v263.273C262.875,337.153,260.245,339.783,257.012,339.783z M76.266,65.035
		c-3.094,0-5.612,2.518-5.612,5.612v263.273c0,3.095,2.518,5.612,5.612,5.612h180.746c3.095,0,5.612-2.518,5.612-5.612V70.647
		c0-3.094-2.518-5.612-5.612-5.612H76.266z M750,400.852H0v0.12h750V400.852z M653.626,430.649h55.729v-0.421h-55.729V430.649z
		 M495.044,435.215h14.627v-0.421h-14.627V435.215z M40.645,417.852h72.674v-0.421H40.645V417.852z M128.299,417.852h10.656v-0.421
		h-10.656V417.852z M173.586,424.956h157.613v-0.421H173.586V424.956z"/>
	<g>
		<rect x="286.055" y="340.551" style="fill:#E0E0E0;" width="27.756" height="11.526"/>
		<rect x="301.48" y="329.113" style="fill:#E6E6E6;" width="27.756" height="11.526"/>
		<rect x="302.399" y="351.861" style="fill:#F5F5F5;" width="27.756" height="11.525"/>
		<rect x="598.819" y="82.936" style="fill:#E0E0E0;" width="27.756" height="11.526"/>
		<rect x="614.244" y="71.497" style="fill:#E6E6E6;" width="27.756" height="11.526"/>
		<rect x="615.163" y="94.245" style="fill:#F5F5F5;" width="27.756" height="11.526"/>
		<rect x="461.082" y="126.186" style="fill:#E0E0E0;" width="27.756" height="11.526"/>
		<rect x="477.426" y="137.495" style="fill:#F5F5F5;" width="27.756" height="11.526"/>
		<rect x="64.765" y="236.35" style="fill:#E6E6E6;" width="27.756" height="11.526"/>
		<rect x="78.643" y="247.876" style="fill:#F5F5F5;" width="27.756" height="11.526"/>
		<rect x="672.468" y="255.131" style="fill:#E6E6E6;" width="27.756" height="11.526"/>
		<rect x="686.346" y="266.657" style="fill:#F5F5F5;" width="27.756" height="11.526"/>
		<rect x="309.15" y="45.086" style="fill:#E6E6E6;" width="27.756" height="11.526"/>
		<rect x="323.028" y="56.612" style="fill:#F5F5F5;" width="27.756" height="11.526"/>
		<rect x="449.71" y="359.81" style="fill:#F5F5F5;" width="27.756" height="11.526"/>
		<rect x="648.899" y="151.692" style="fill:#F5F5F5;" width="27.756" height="11.526"/>
		<rect x="227.098" y="305.007" style="fill:#F5F5F5;" width="27.756" height="11.526"/>
	</g>
	<g>
		<g>
			<g>
				<path style="fill:#E0E0E0;" d="M512.339,441.805c-0.013-0.405-1.377-40.655-7.924-47.021c-6.368-6.19-13.676-0.23-13.983,0.026
					l-0.657-0.787c0.083-0.07,8.331-6.802,15.354,0.026c6.841,6.652,8.179,46.049,8.233,47.723L512.339,441.805z"/>
			</g>
			<g>
				<path style="fill:#E0E0E0;" d="M512.901,449.715c-0.047-0.481-4.474-48.32,12.996-68.37l0.772,0.672
					c-17.181,19.718-12.795,67.121-12.749,67.597L512.901,449.715z"/>
			</g>
			<g>
				<path style="fill:#E0E0E0;" d="M512.255,444.654l-1.023-0.068c0.036-0.542,3.419-54.386-9.396-66.172l0.693-0.755
					C515.704,389.777,512.402,442.419,512.255,444.654z"/>
			</g>
			<g>
				<path style="fill:#E0E0E0;" d="M513.923,444.624l-1.025-0.008c0.013-1.483,0.423-36.369,10.332-42.048
					c2.203-1.264,4.36-1.474,6.412-0.625c5.992,2.479,8.961,13.143,9.085,13.595l-0.989,0.27
					c-0.029-0.106-2.961-10.633-8.489-12.919c-1.742-0.719-3.596-0.529-5.51,0.567C514.337,408.846,513.926,444.267,513.923,444.624
					z"/>
			</g>
			<g>
				<path style="fill:#E0E0E0;" d="M510.064,444.649l-1.022-0.058c0.015-0.275,1.495-27.568-5.871-37.185
					c-1.785-2.329-3.722-3.44-5.769-3.297c-4.826,0.337-8.873,7.4-8.913,7.471l-0.893-0.504c0.176-0.31,4.357-7.612,9.733-7.988
					c2.405-0.171,4.647,1.075,6.655,3.696C511.581,416.702,510.129,443.513,510.064,444.649z"/>
			</g>
			<g>
				<path style="fill:#E0E0E0;" d="M511.679,448.362c-0.201-2.648-4.815-64.967,3.304-75.948l0.823,0.608
					c-7.895,10.678-3.155,74.617-3.106,75.261L511.679,448.362z"/>
			</g>
		</g>
		<g>
			<path style="fill:#EBEBEB;" d="M531.85,408.259c0,0-4.871,1.796-3.423,6.035c1.448,4.239,16.85,11.216,16.85,11.216
				s6.451-5.913,0.527-15.528C539.881,400.366,531.982,405.225,531.85,408.259z"/>
		</g>
		<g>
			<path style="fill:#EBEBEB;" d="M510.675,400.189c0,0,5.187-0.217,5.482,4.253c0.295,4.47-11.237,16.837-11.237,16.837
				s-8.229-2.975-6.462-14.13C500.226,395.994,509.387,397.44,510.675,400.189z"/>
		</g>
		<g>
			<path style="fill:#EBEBEB;" d="M506.284,378.791c0,0,3.458-0.371,3.18-2.478c-0.278-2.106-13.443-7.528-21.21,1.239
				c0,0,4.973,8.543,12.163,8.655C507.606,386.319,506.284,378.791,506.284,378.791z"/>
		</g>
		<g>
			<path style="fill:#EBEBEB;" d="M512.728,373.676c0,0-3.131,1.514-4.009-0.421c-0.878-1.935,7.427-13.498,18.656-10.166
				c0,0,0.297,9.881-5.745,13.778C515.588,380.764,512.728,373.676,512.728,373.676z"/>
		</g>
		<g>
			<path style="fill:#EBEBEB;" d="M496.355,406.555c0,0,2.387-1.927-0.189-2.868c-2.576-0.941-15.213-0.673-15.345,11.845
				c0,0,14.719,2.446,16.541-2.322C499.184,408.442,496.355,406.555,496.355,406.555z"/>
		</g>
		<g>
			<path style="fill:#EBEBEB;" d="M526.37,378.478c0,0-2.387-1.927,0.189-2.868c2.576-0.94,15.213-0.673,15.345,11.845
				c0,0-14.719,2.446-16.541-2.323C523.542,380.364,526.37,378.478,526.37,378.478z"/>
		</g>
		<g>
			<path style="fill:#EBEBEB;" d="M518.589,388.562c0,0-0.21-2.342,1.681-1.424c1.891,0.918,8.479,8.026,1.65,14.771
				c0,0-9.193-6.809-7.536-10.354C516.041,388.008,518.589,388.562,518.589,388.562z"/>
		</g>
		<g>
			<path style="fill:#EBEBEB;" d="M494.222,391.9c0,0,1.427-1.87-0.663-2.101c-2.089-0.232-11.453,2.268-9.272,11.615
				c0,0,11.407-0.857,11.896-4.74C496.672,392.79,494.222,391.9,494.222,391.9z"/>
		</g>
		<polygon style="fill:#F0F0F0;" points="523.513,462.681 500.503,462.681 494.383,434.451 529.052,434.451 		"/>
		<rect x="492.295" y="434.043" style="fill:#E6E6E6;" width="38.753" height="8.118"/>
	</g>
</g>
<g id="Background_simple" style="display:none;">
	<g style="display:inline;">
		<path style="fill:#407BFF;" d="M674.052,219.096c-4.857-11.631-16.625-18.999-28.625-22.856c-12-3.857-24.718-4.949-36.872-8.286
			c-8.36-2.296-17.313-6.538-20.171-14.722c-4.476-12.817,8.57-24.783,20.751-30.779c12.181-5.996,26.905-12.383,29.563-25.697
			c2.217-11.104-5.33-22.303-15.526-28.255c-9.779-5.708-23.243-8.541-45.808-9.906c-160.497-9.713-322.905,26.436-467.558,96.644
			c-18.77,9.11-39.349,21.546-43.003,42.087c-2.673,15.026,5.149,30.46,16.657,40.483c11.509,10.023,26.225,15.51,40.849,19.877
			c72.036,21.512,148.601,20.49,223.772,19.287c87.093-1.394,174.508-2.815,260.605-16.017c17.198-2.637,34.998-6.021,49.027-16.312
			C671.741,254.354,680.756,235.151,674.052,219.096z"/>
	</g>
	<g style="display:inline;opacity:0.9;">
		<path style="fill:#FFFFFF;" d="M674.052,219.096c-4.857-11.631-16.625-18.999-28.625-22.856c-12-3.857-24.718-4.949-36.872-8.286
			c-8.36-2.296-17.313-6.538-20.171-14.722c-4.476-12.817,8.57-24.783,20.751-30.779c12.181-5.996,26.905-12.383,29.563-25.697
			c2.217-11.104-5.33-22.303-15.526-28.255c-9.779-5.708-23.243-8.541-45.808-9.906c-160.497-9.713-322.905,26.436-467.558,96.644
			c-18.77,9.11-39.349,21.546-43.003,42.087c-2.673,15.026,5.149,30.46,16.657,40.483c11.509,10.023,26.225,15.51,40.849,19.877
			c72.036,21.512,148.601,20.49,223.772,19.287c87.093-1.394,174.508-2.815,260.605-16.017c17.198-2.637,34.998-6.021,49.027-16.312
			C671.741,254.354,680.756,235.151,674.052,219.096z"/>
	</g>
</g>
<g id="Shadow">
	<path style="fill:#F5F5F5;" d="M679.177,468.803c0,3.387-136.185,6.132-304.177,6.132s-304.177-2.746-304.177-6.132
		c0-3.387,136.184-6.132,304.177-6.132S679.177,465.416,679.177,468.803z"/>
</g>
<g id="Speech_Bubble">
	<g>
		<path style="fill:#407BFF;" d="M658.451,217.933c-0.083-0.075-0.154-0.158-0.236-0.234l-6.351,0.087l2.155-5.612
			c-3.685-7.161-2.826-16.145,2.865-22.504c7.372-8.237,20.025-8.939,28.263-1.567c8.237,7.372,8.939,20.025,1.567,28.263
			C679.342,224.603,666.688,225.305,658.451,217.933z M693.794,198.751c0.137-0.014,0.236-0.137,0.223-0.274
			c-0.687-6.529-4.924-12.645-10.797-15.581c-0.12-0.063-0.272-0.011-0.335,0.112c-0.062,0.124-0.012,0.274,0.112,0.336
			c5.724,2.861,9.854,8.822,10.522,15.186c0.014,0.129,0.122,0.224,0.249,0.224C693.776,198.752,693.785,198.752,693.794,198.751z
			 M694.137,204.495c0.236-0.996,0.266-2.053,0.084-3.057c-0.024-0.136-0.152-0.227-0.291-0.202
			c-0.136,0.025-0.226,0.155-0.201,0.291c0.17,0.938,0.143,1.924-0.078,2.853c-0.032,0.134,0.051,0.269,0.185,0.301
			c0.02,0.005,0.039,0.007,0.058,0.007C694.007,204.687,694.109,204.61,694.137,204.495z"/>
		<polygon style="fill:#FFFFFF;" points="671.404,211.541 662.23,204.71 664.613,201.509 670.765,206.089 679.217,196.006 
			682.276,198.57 		"/>
	</g>
</g>
<g id="Plant">
	<g>
		<path style="fill:#407BFF;" d="M264.618,412.343c2.435-3.002,7.142-5.005,12.31-5.969c-0.405,1.478-0.102,2.842,0.772,3.177
			c0.975,0.374,2.282-0.673,2.92-2.338c0.18-0.47,0.28-0.935,0.32-1.375c5.21-0.423,10.42,0.176,13.898,1.845
			c0,0-3.404,3.068-7.26,11.137c-0.118-0.004-0.237-0.008-0.358-0.007c-2.495,0.025-4.507,1.23-4.492,2.691
			c0.011,1.068,1.102,1.974,2.661,2.377c-0.203,0.517-0.405,1.042-0.606,1.588c-3.673,9.942-13.473,2.755-13.385-4.05
			C271.397,421.42,259.161,419.07,264.618,412.343z"/>
		<path style="fill:#407BFF;" d="M252.545,399.51c-3.001-3.24-8.517-5.172-14.48-5.884c0.572,1.655,0.328,3.232-0.643,3.679
			c-1.083,0.499-2.652-0.597-3.504-2.447c-0.24-0.522-0.389-1.045-0.467-1.543c-5.972-0.093-11.867,0.98-15.706,3.143
			c0,0,4.111,3.244,9.11,12.153c0.135-0.014,0.27-0.027,0.407-0.035c2.847-0.158,5.23,1.065,5.322,2.732
			c0.068,1.218-1.109,2.333-2.856,2.909c0.27,0.574,0.54,1.158,0.81,1.765c4.932,11.059,15.566,2.133,14.956-5.618
			C245.496,410.365,259.27,406.771,252.545,399.51z"/>
		<g>
			<path style="fill:#407BFF;" d="M245.257,397.082c1.275-6.221,6.617-12.707,13.417-18.029c0.53,2.461,2.006,4.219,3.533,4.044
				c1.704-0.194,2.816-2.711,2.484-5.62c-0.094-0.821-0.301-1.575-0.576-2.245c7.272-4.566,15.32-7.641,21.652-7.844
				c0,0-2.636,7.052-2.141,21.733c-0.176,0.083-0.352,0.168-0.527,0.261c-3.618,1.928-5.636,5.208-4.507,7.327
				c0.825,1.548,3.102,2.042,5.68,1.447c0.096,0.906,0.2,1.826,0.319,2.774c2.181,17.273-17.548,14.226-22.576,4.242
				C262.016,405.173,242.402,411.022,245.257,397.082z"/>
			<path style="opacity:0.2;fill:#FFFFFF;" d="M245.257,397.082c1.275-6.221,6.617-12.707,13.417-18.029
				c0.53,2.461,2.006,4.219,3.533,4.044c1.704-0.194,2.816-2.711,2.484-5.62c-0.094-0.821-0.301-1.575-0.576-2.245
				c7.272-4.566,15.32-7.641,21.652-7.844c0,0-2.636,7.052-2.141,21.733c-0.176,0.083-0.352,0.168-0.527,0.261
				c-3.618,1.928-5.636,5.208-4.507,7.327c0.825,1.548,3.102,2.042,5.68,1.447c0.096,0.906,0.2,1.826,0.319,2.774
				c2.181,17.273-17.548,14.226-22.576,4.242C262.016,405.173,242.402,411.022,245.257,397.082z"/>
		</g>
		<path style="fill:#263238;" d="M283.848,412.316c-0.076-0.116-0.231-0.149-0.345-0.076c-7.347,4.708-21.968,15.253-24.639,17.186
			c-1.059-16.073,3.936-32.536,13.939-45.18l-0.393-0.311c-9.887,12.5-14.904,28.702-14.083,44.604
			c-2.84-7.336-10.617-20.883-23.112-27.37c-0.121-0.064-0.273-0.017-0.337,0.106c-0.064,0.123-0.016,0.273,0.106,0.337
			c13.138,6.822,21.024,21.565,23.358,28.409c0.012,0.035,0.05,0.047,0.075,0.073c0.164,2.158,0.424,4.308,0.808,6.44l0.492-0.088
			c-0.383-2.131-0.644-4.281-0.806-6.438c1.829-1.324,17.255-12.474,24.861-17.346C283.888,412.587,283.922,412.433,283.848,412.316
			z"/>
		<polygon style="fill:#263238;" points="279.736,442.326 238.222,442.326 238.238,434.722 279.694,434.722 		"/>
		<polygon style="fill:#263238;" points="241.23,439.847 247.716,466.83 271.602,466.83 277.386,439.847 		"/>
		<polygon style="opacity:0.3;" points="241.826,442.326 276.855,442.326 276.214,445.313 242.449,445.313 		"/>
		<path style="fill:#407BFF;" d="M244.23,433.412h-3.693c-0.138,0-0.25-0.112-0.25-0.25s0.112-0.25,0.25-0.25h3.693
			c0.138,0,0.25,0.112,0.25,0.25S244.368,433.412,244.23,433.412z M256.283,433.162c0-0.138-0.112-0.25-0.25-0.25h-10.106
			c-0.138,0-0.25,0.112-0.25,0.25s0.112,0.25,0.25,0.25h10.106C256.171,433.412,256.283,433.3,256.283,433.162z"/>
	</g>
</g>
<g id="Magnifying_Glass">
	<g>
		<path style="fill:#407BFF;" d="M540.609,231.13c-6.737,16.332-23.16,26.529-40.785,25.324c-4.44-0.301-8.799-1.331-12.904-3.049
			c-20.995-8.684-30.976-32.743-22.292-53.738c8.683-20.995,32.743-30.976,53.738-22.292c20.993,8.683,30.974,32.738,22.295,53.733
			L540.609,231.13z"/>
		<path style="opacity:0.7;fill:#FFFFFF;" d="M540.609,231.13c-6.737,16.332-23.16,26.529-40.785,25.324
			c-4.44-0.301-8.799-1.331-12.904-3.049c-20.995-8.684-30.976-32.743-22.292-53.738c8.683-20.995,32.743-30.976,53.738-22.292
			c20.993,8.683,30.974,32.738,22.295,53.733L540.609,231.13z"/>
	</g>
	<path style="opacity:0.4;fill:#FFFFFF;enable-background:new    ;" d="M535.072,190.757l-71.922,29.845
		c-0.095-0.611-0.192-1.198-0.263-1.808c-0.456-3.908-0.328-7.863,0.38-11.734l0,0l62.11-25.773
		C529.129,183.863,532.408,187.067,535.072,190.757z M538.914,197.427l-73.825,30.637c2.098,5.753,5.499,10.942,9.937,15.161
		l67.621-28.038C542.78,209.06,541.503,202.983,538.914,197.427z"/>
	<path style="fill:#263238;" d="M520.382,171.677c-0.042-0.018-0.085-0.035-0.127-0.052c-23.536-9.686-50.469,1.542-60.155,25.078
		c-9.317,22.638,0.722,48.41,22.444,58.964c-2.94,4.534-4.812,9.6-7.562,14.204c-1.508,2.642-20.644,39.498-22.069,42.175
		l-2.18,3.998c-0.92,1.472-1.019,3.262-0.266,4.841c0.766,1.767,2.909,2.724,4.898,2.186c1.818-0.438,3.29-1.617,3.982-3.191
		l2.084-4.047c1.411-2.678,20.23-39.67,21.56-42.395c2.287-4.953,4.498-9.952,6.349-15.099c22.418,6.829,46.776-4.348,55.941-26.431
		C555.037,208.398,543.89,181.433,520.382,171.677z M539.757,229.612c-8.438,20.495-31.892,30.27-52.388,21.833
		c-0.022-0.009-0.045-0.018-0.068-0.028l-0.002,0.053c-20.484-8.465-30.227-31.934-21.761-52.417
		c8.465-20.484,31.934-30.227,52.418-21.761C538.401,185.742,548.153,209.144,539.757,229.612z"/>
	<path style="fill:#263238;" d="M541.599,180.442c-0.781,0.571-1.528-0.731-0.757-1.295c5.062-3.703,10.124-7.405,15.186-11.108
		c0.781-0.571,1.528,0.731,0.757,1.295C551.723,173.036,546.661,176.739,541.599,180.442L541.599,180.442z M546.183,187.725
		c3.956,0,7.911,0,11.867,0c0.965,0,0.967-1.5,0-1.5c-3.956,0-7.911,0-11.867,0C545.218,186.225,545.217,187.725,546.183,187.725
		L546.183,187.725z M536.435,174.369c0.669-4.017,1.337-8.033,2.006-12.05c0.157-0.944-1.288-1.35-1.446-0.399
		c-0.669,4.017-1.337,8.033-2.006,12.05C534.831,174.914,536.276,175.32,536.435,174.369L536.435,174.369z"/>
</g>
<g id="Rocket_00000041254800498522528650000016764051073880541316_">
	<g>
		<g>
			<path style="fill:#407BFF;" d="M387.566,442.718H348.86c4.541-77.599,4.701-157.836,0-241h38.706
				C380.998,274.428,381.222,355.021,387.566,442.718z"/>
			<path style="opacity:0.8;fill:#FFFFFF;" d="M387.566,442.718H348.86c4.541-77.599,4.701-157.836,0-241h38.706
				C380.998,274.428,381.222,355.021,387.566,442.718z"/>
			<g>
				<path style="fill:#407BFF;" d="M475.049,436.112c-7.5-2.578-22.513-2.117-22.513-2.117s-4.689-6.835-8.522-9.874
					c-10.656-8.448-26.855-9.027-38.087-1.362c-10.865-20.214-34.621-32.691-57.43-30.161
					c-22.809,2.529-43.255,19.908-49.426,42.011c-19.066-3.68-39.335,13.07-39.314,32.488l238.213,0.858
					C499.144,454.455,491.65,441.818,475.049,436.112z"/>
			</g>
			<g style="opacity:0.7;">
				<path style="fill:#FFFFFF;" d="M475.049,436.112c-7.5-2.578-22.513-2.117-22.513-2.117s-4.689-6.835-8.522-9.874
					c-10.656-8.448-26.855-9.027-38.087-1.362c-10.865-20.214-34.621-32.691-57.43-30.161
					c-22.809,2.529-43.255,19.908-49.426,42.011c-19.066-3.68-39.335,13.07-39.314,32.488l238.213,0.858
					C499.144,454.455,491.65,441.818,475.049,436.112z"/>
			</g>
			<g>
				<path style="fill:#407BFF;" d="M341.321,370.753c-1.119-1.064-2.938-2.439-5.88-1.171c-1.573,0.503-3.029,2.553-2.991,4.204
					c0.038,1.652,1.112,3.201,2.586,3.947c1.474,0.746,3.281,0.72,4.799,0.069c1.246-0.535,2.35-1.531,2.739-2.83
					C343.017,373.494,342.44,371.818,341.321,370.753z"/>
			</g>
			<g style="opacity:0.8;">
				<path style="fill:#FFFFFF;" d="M341.321,370.753c-1.119-1.064-2.938-2.439-5.88-1.171c-1.573,0.503-3.029,2.553-2.991,4.204
					c0.038,1.652,1.112,3.201,2.586,3.947c1.474,0.746,3.281,0.72,4.799,0.069c1.246-0.535,2.35-1.531,2.739-2.83
					C343.017,373.494,342.44,371.818,341.321,370.753z"/>
			</g>
		</g>
		<path style="fill:#407BFF;" d="M343.305,122.112c0,0-14.54,7.332-18.917,25.695c-3.19,13.393-2.224,38.666,3.525,40.694
			c5.749,2.028,6.39-13.622,6.438-19.185c0.048-5.563,5.261-12.355,9.906-12.761C344.257,156.555,345.166,127.187,343.305,122.112z"
			/>
		<path style="opacity:0.2;enable-background:new    ;" d="M345.482,125.752c-3.439,1.311-6.266,3.826-8.557,6.639
			c-2.439,3.095-4.446,6.508-5.964,10.145c-1.684,3.885-2.912,7.952-3.659,12.12c-0.698,4.391-1.039,8.832-1.019,13.278
			c-0.077,5.438-0.211,11.102,1.913,16.229c0.081,0.206,0.421,0.115,0.335-0.091c-1.837-4.467-1.947-9.346-1.913-14.105
			c0.038-4.491,0.105-9.002,0.741-13.455c1.138-7.911,4.023-15.913,8.715-22.428c2.435-3.377,5.558-6.491,9.509-7.997
			c0.21-0.081,0.12-0.416-0.091-0.335H345.482z"/>
		<path style="fill:#407BFF;" d="M393.121,122.112c0,0,14.54,7.332,18.917,25.695c3.19,13.393,2.224,38.666-3.525,40.694
			c-5.749,2.028-6.39-13.622-6.438-19.185c-0.048-5.563-5.261-12.355-9.906-12.761C392.169,156.555,391.26,127.187,393.121,122.112z
			"/>
		<path style="opacity:0.2;enable-background:new    ;" d="M390.854,126.082c3.458,1.32,6.285,3.884,8.562,6.749
			c2.38,3.072,4.336,6.451,5.816,10.044c1.658,3.866,2.864,7.91,3.592,12.053c0.761,4.362,0.914,8.796,0.957,13.216
			c0.072,5.343,0.187,10.886-1.884,15.923c-0.081,0.206,0.253,0.296,0.335,0.091c1.861-4.525,1.956-9.48,1.913-14.301
			c-0.038-4.549-0.12-9.117-0.78-13.627c-0.638-4.294-1.788-8.497-3.425-12.517c-1.423-3.632-3.305-7.067-5.601-10.221
			c-2.425-3.286-5.52-6.261-9.394-7.739c-0.21-0.081-0.301,0.254-0.091,0.335V126.082z"/>
		<path style="fill:#407BFF;" d="M388.122,177.916h-40.178c0,0-7.356-28.268-4.472-59.965c0.778-8.399,2.91-16.618,6.314-24.336
			c0.048-0.12,0.1-0.239,0.153-0.354c0.842-1.913,1.727-3.716,2.635-5.433c3.569-6.756,8.02-13.008,13.235-18.592
			c1.158-1.321,3.168-1.453,4.489-0.294c0.104,0.092,0.203,0.19,0.294,0.294c5.382,5.763,9.949,12.236,13.574,19.238
			c0.909,1.755,1.794,3.606,2.631,5.548l0.148,0.344c3.21,7.503,5.23,15.46,5.988,23.585
			C395.814,149.667,388.122,177.916,388.122,177.916z"/>
		<path style="opacity:0.7;fill:#FFFFFF;" d="M388.122,177.916h-40.178c0,0-7.356-28.268-4.472-59.965
			c0.778-8.399,2.91-16.618,6.314-24.336c0.048-0.12,0.1-0.239,0.153-0.354c0.842-1.913,1.727-3.716,2.635-5.433
			c3.569-6.756,8.02-13.008,13.235-18.592c1.158-1.321,3.168-1.453,4.489-0.294c0.104,0.092,0.203,0.19,0.294,0.294
			c5.382,5.763,9.949,12.236,13.574,19.238c0.909,1.755,1.794,3.606,2.631,5.548l0.148,0.344c3.21,7.503,5.23,15.46,5.988,23.585
			C395.814,149.667,388.122,177.916,388.122,177.916z"/>
		<path style="fill:#263238;" d="M388.213,177.916h-39.623c0,0-3.061,6.596-0.167,10.762h9.614
			c-0.253,1.129-0.357,2.635,0.431,3.779h20.309c0.57-1.383,0.445-2.762,0.19-3.779h10.07
			C391.26,183.297,388.213,177.916,388.213,177.916z"/>
		<path style="fill:#407BFF;" d="M378.786,192.456h-20.251c-4.099,2.176-14.297,7.371-12.871,16.171h46.515
			C393.604,199.827,382.885,194.628,378.786,192.456z"/>
		<rect x="343.918" y="206.767" style="fill:#263238;" width="49.662" height="3.831"/>
		<path style="fill:#407BFF;" d="M384.167,88.473c-3.664,2.621-9.27,5.558-15.966,5.558c-5.807-0.033-11.388-2.253-15.631-6.218
			c0.383-0.724,0.768-1.428,1.158-2.114l0.187-0.321c3.316-5.833,7.307-11.256,11.891-16.157c1.158-1.321,3.168-1.453,4.489-0.295
			c0.104,0.092,0.203,0.19,0.294,0.295c4.597,4.912,8.598,10.35,11.919,16.2l0.187,0.33
			C383.194,86.634,383.685,87.542,384.167,88.473z"/>
		<path style="fill:#407BFF;" d="M353.551,173.889h30.129v0.459h-30.129V173.889z M382.512,85.44
			c-2.937,2.114-6.302,3.559-9.858,4.233c-4.987,0.918-10.136,0.249-14.722-1.913c-1.411-0.66-2.757-1.453-4.018-2.368l-0.186,0.32
			c3.105,2.239,6.679,3.741,10.451,4.391c5.032,0.837,10.2,0.095,14.794-2.124c1.303-0.63,2.55-1.371,3.726-2.215L382.512,85.44z
			 M387.458,123.011c-1.842-18.597-3.281-26.039-3.449-26.857c0.694-0.378,1.344-0.761,1.913-1.134
			c0.349-0.215,0.684-0.435,1.004-0.655l-0.148-0.344c-0.339,0.23-0.689,0.478-1.052,0.689c-3.826,2.415-9.973,5.3-17.377,5.3
			c-5.835,0.003-11.531-1.787-16.315-5.127c-0.789-0.545-1.492-1.095-2.119-1.622c-0.053,0.115-0.105,0.234-0.153,0.354
			c0.608,0.507,1.291,1.033,2.047,1.564c0.478,0.335,1.019,0.684,1.588,1.028c-0.206,1.033-1.626,8.538-3.434,26.785
			c-1.435,14.254-0.124,28.435,1.205,37.824c0.789,5.762,1.878,11.479,3.262,17.128c0.02,0.076,0.089,0.129,0.167,0.129h0.043
			c0.091-0.026,0.146-0.118,0.124-0.21c-1.381-5.638-2.466-11.344-3.252-17.094c-1.33-9.365-2.616-23.514-1.205-37.733
			c1.751-17.669,3.138-25.25,3.405-26.651c4.435,2.632,9.498,4.02,14.655,4.018c5.357-0.068,10.615-1.458,15.306-4.047
			c0.239,1.215,1.641,8.753,3.42,26.713c1.411,14.22,0.124,28.368-1.205,37.734c-0.786,5.751-1.872,11.457-3.253,17.095
			c-0.021,0.092,0.033,0.185,0.124,0.21h0.043c0.079,0,0.148-0.053,0.167-0.129c1.384-5.649,2.473-11.366,3.262-17.128
			C387.582,151.446,388.874,137.265,387.458,123.011z M381.675,129.444c0-0.003,0-0.006,0-0.01
			c-0.003-7.352-5.965-13.309-13.316-13.306c-7.352,0.003-13.309,5.964-13.306,13.316c0.003,7.352,5.964,13.309,13.316,13.306
			C375.714,142.743,381.667,136.79,381.675,129.444z M381.331,129.444L381.331,129.444c0,7.159-5.803,12.962-12.962,12.962
			s-12.962-5.803-12.962-12.962c0-7.159,5.803-12.962,12.962-12.962C375.524,116.49,381.323,122.289,381.331,129.444z"/>
		<path style="fill:#407BFF;" d="M378.446,129.44c0,5.566-4.512,10.078-10.078,10.078l0,0h-0.234
			c-1.706-0.034-3.374-0.505-4.845-1.368c-1.138-0.666-2.135-1.546-2.937-2.592c-1.342-1.755-2.067-3.904-2.061-6.113
			c0.001-0.392,0.023-0.783,0.067-1.172c0.549-4.633,4.202-8.285,8.834-8.834c0.391-0.044,0.784-0.066,1.177-0.067
			c5.47,0.006,9.938,4.37,10.073,9.839C378.446,129.286,378.446,129.363,378.446,129.44z"/>
		<path style="opacity:0.1;fill:#FFFFFF;enable-background:new    ;" d="M374.477,121.447l-14.124,14.124
			c-1.342-1.754-2.067-3.904-2.061-6.113c0.001-0.392,0.023-0.783,0.067-1.172l8.834-8.834c0.391-0.044,0.784-0.066,1.177-0.067
			C370.576,119.383,372.722,120.107,374.477,121.447z M377.069,124.369l-13.78,13.775c1.472,0.863,3.14,1.334,4.845,1.368
			l10.307-10.307C378.406,127.502,377.934,125.837,377.069,124.369z"/>
	</g>
</g>
<g id="Light_bulb">
	<g>
		<path style="fill:#407BFF;" d="M260.066,91.825c-14.58-0.171-26.539,11.509-26.71,26.09c-0.093,7.912,3.368,15.449,9.429,20.535
			c1.116,0.92,2.819,2.033,2.781,4.339c-0.001,0.071,0.117,5.77,0.117,5.77h27.769c0,0,0.118-5.921,0.118-5.989
			c0-2.03,1.572-2.906,2.729-3.821c6.143-4.925,9.759-12.34,9.856-20.213C286.326,103.955,274.646,91.996,260.066,91.825z"/>
		<path style="opacity:0.4;fill:#FFFFFF;" d="M260.066,91.825c-14.58-0.171-26.539,11.509-26.71,26.09
			c-0.093,7.912,3.368,15.449,9.429,20.535c1.116,0.92,2.819,2.033,2.781,4.339c-0.001,0.071,0.117,5.77,0.117,5.77h27.769
			c0,0,0.118-5.921,0.118-5.989c0-2.03,1.572-2.906,2.729-3.821c6.143-4.925,9.759-12.34,9.856-20.213
			C286.326,103.955,274.646,91.996,260.066,91.825z"/>
		<path style="opacity:0.2;fill:#FFFFFF;enable-background:new    ;" d="M273.19,103.202c0,5.14-6.016,9.317-13.475,9.317
			c-7.459,0-13.475-4.177-13.475-9.317c0-5.14,6.016-9.327,13.475-9.327C267.174,93.875,273.19,98.053,273.19,103.202z"/>
		<path style="fill:#FFFFFF;" d="M239.423,128.387c-2.339-4.011-3.254-8.75-2.576-13.343c0.678-4.593,2.922-8.865,6.321-12.03
			l0.341,0.366c-3.316,3.087-5.506,7.256-6.167,11.737c-0.662,4.481,0.231,9.104,2.513,13.018L239.423,128.387z"/>
		<path style="fill:#263238;" d="M267.357,142.944c-1.334-3.514-2.447-7.128-3.331-10.814c-1.35,1.15-2.823,1.727-4.253,1.667
			c-1.142-0.056-2.283-0.518-3.454-1.404c-0.189,3.571-0.788,7.115-1.794,10.537l-0.959-0.282c1.055-3.591,1.653-7.32,1.789-11.073
			c-0.186-0.175-0.374-0.361-0.562-0.557c-2.971-3.094-4.359-6.93-3.714-10.261c0.249-1.287,1.031-2.573,2.23-2.541
			c1.086,0.027,1.885,1.079,2.247,2.962c0.63,3.286,0.9,6.633,0.813,9.967c1.209,1.057,2.346,1.6,3.454,1.654
			c1.66,0.083,3.073-0.945,3.944-1.783c-0.641-2.83-1.148-5.7-1.518-8.596c-0.135-1.059-0.237-2.094-0.004-3.106
			c0.288-1.254,1.1-2.199,2.07-2.406c1.677-0.366,3.033,1.409,3.493,3.343c0.904,3.798-0.235,8.128-2.902,11.031
			c-0.014,0.015-0.027,0.029-0.041,0.044c0.896,3.843,2.042,7.609,3.429,11.265L267.357,142.944z M253.269,119.215
			c-0.568,0-1.046,0.888-1.209,1.731c-0.574,2.964,0.667,6.407,3.324,9.241c0.017-2.954-0.252-5.913-0.811-8.822
			c-0.198-1.029-0.641-2.135-1.29-2.15C253.278,119.215,253.273,119.215,253.269,119.215z M264.734,117.862
			c-0.071,0-0.141,0.007-0.212,0.022c-0.672,0.144-1.139,0.934-1.304,1.652c-0.196,0.852-0.102,1.79,0.021,2.756
			c0.336,2.633,0.787,5.243,1.35,7.821c2.111-2.623,3.011-6.409,2.244-9.632C266.513,119.137,265.662,117.862,264.734,117.862z"/>
		<path style="fill:#263238;" d="M275.026,146.882h-30.773c-0.886,0-1.604,0.718-1.604,1.604v0.144c0,0.772,0.546,1.416,1.272,1.569
			c-0.434,0.287-0.721,0.778-0.721,1.338v0.035c0,0.72,0.477,1.322,1.13,1.525c-0.414,0.29-0.686,0.769-0.686,1.313v0.035
			c0,0.886,0.718,1.604,1.604,1.604h0.676c-0.432,0.288-0.717,0.778-0.717,1.335v0.035c0,0.886,0.718,1.604,1.604,1.604h3.149
			c2.276,3.396,6.18,6.574,10.052,6.346c3.743-0.221,7.282-2.999,9.223-6.346h3.233c0.886,0,1.604-0.718,1.604-1.604v-0.035
			c0-0.558-0.285-1.048-0.717-1.335h0.676c0.886,0,1.604-0.718,1.604-1.604v-0.035c0-0.544-0.272-1.023-0.686-1.313
			c0.653-0.203,1.13-0.805,1.13-1.525v-0.035c0-0.559-0.287-1.051-0.721-1.338c0.726-0.153,1.272-0.797,1.272-1.569v-0.144
			C276.63,147.6,275.912,146.882,275.026,146.882z"/>
		<path style="opacity:0.3;fill:#FFFFFF;" d="M275.026,146.882h-30.773c-0.886,0-1.604,0.718-1.604,1.604v0.144
			c0,0.772,0.546,1.416,1.272,1.569c-0.434,0.287-0.721,0.778-0.721,1.338v0.035c0,0.72,0.477,1.322,1.13,1.525
			c-0.414,0.29-0.686,0.769-0.686,1.313v0.035c0,0.886,0.718,1.604,1.604,1.604h0.676c-0.432,0.288-0.717,0.778-0.717,1.335v0.035
			c0,0.886,0.718,1.604,1.604,1.604h25.657c0.886,0,1.604-0.718,1.604-1.604v-0.035c0-0.558-0.285-1.048-0.717-1.335h0.676
			c0.886,0,1.604-0.718,1.604-1.604v-0.035c0-0.544-0.272-1.023-0.686-1.313c0.653-0.203,1.13-0.805,1.13-1.525v-0.035
			c0-0.559-0.287-1.051-0.721-1.338c0.726-0.153,1.272-0.797,1.272-1.569v-0.144C276.63,147.6,275.912,146.882,275.026,146.882z"/>
	</g>
	<path style="fill:#263238;" d="M245.064,82.293c-0.342-0.342,0.189-0.872,0.53-0.53c2.007,2.007,4.013,4.013,6.02,6.02
		c0.342,0.342-0.189,0.872-0.53,0.53C249.078,86.306,247.071,84.299,245.064,82.293L245.064,82.293z M260.86,85.904
		c0-3.797,0-7.593,0-11.389c0-0.483-0.75-0.483-0.75,0c0,3.797,0,7.593,0,11.389C260.11,86.386,260.86,86.387,260.86,85.904
		L260.86,85.904z M269.193,88.801c2.169-2.169,4.339-4.339,6.508-6.508c0.342-0.342-0.189-0.872-0.53-0.53
		c-2.169,2.169-4.339,4.339-6.508,6.508C268.32,88.612,268.851,89.143,269.193,88.801L269.193,88.801z"/>
</g>
<g id="Document">
	<g>
		<path style="fill:#263238;" d="M161.333,193.31l-61.007-10.926c-2.081-0.373-3.465-2.361-3.093-4.442l16.446-91.83
			c0.373-2.081,2.361-3.465,4.442-3.093l61.007,10.926c2.081,0.373,3.465,2.361,3.093,4.442l-16.446,91.83
			C165.402,192.298,163.414,193.683,161.333,193.31z"/>
		
			<rect x="108.105" y="90.798" transform="matrix(0.9843 0.1763 -0.1763 0.9843 26.5306 -22.4715)" style="fill:#FFFFFF;" width="63.271" height="94.576"/>
		<path style="opacity:0.3;" d="M132.06,85.531c-0.29,0.436-2.732,8.896-2.732,8.896s36.891,7.239,36.455,7.152
			c-0.436-0.087,0.619-9.897,0.465-9.925C166.095,91.626,132.06,85.531,132.06,85.531z"/>
		<path style="fill:#407BFF;" d="M89.419,113.967c-7.789-5.915-9.309-17.024-3.394-24.814s17.024-9.309,24.814-3.394
			c6.013,4.566,8.271,12.225,6.275,19.066l2.816,4.512l-5.531,0.993c-0.058,0.079-0.106,0.164-0.166,0.243
			C108.318,118.363,97.209,119.882,89.419,113.967z M80.308,99.886c0.138-0.012,0.24-0.133,0.228-0.271
			c-0.489-5.631,2.092-11.494,6.574-14.937c0.109-0.084,0.13-0.241,0.046-0.351c-0.085-0.11-0.242-0.129-0.351-0.046
			c-4.614,3.544-7.271,9.58-6.768,15.376c0.011,0.13,0.121,0.229,0.248,0.229C80.293,99.887,80.3,99.887,80.308,99.886z
			 M81.279,105.041c0.126-0.057,0.182-0.205,0.124-0.331c-0.346-0.765-0.535-1.613-0.545-2.454c-0.002-0.138-0.1-0.266-0.253-0.246
			c-0.138,0.002-0.248,0.115-0.247,0.253c0.012,0.909,0.216,1.826,0.59,2.653c0.042,0.092,0.132,0.147,0.228,0.147
			C81.21,105.063,81.246,105.056,81.279,105.041z"/>
		<path style="opacity:0.5;fill:#FFFFFF;" d="M89.419,113.967c-7.789-5.915-9.309-17.024-3.394-24.814s17.024-9.309,24.814-3.394
			c6.013,4.566,8.271,12.225,6.275,19.066l2.816,4.512l-5.531,0.993c-0.058,0.079-0.106,0.164-0.166,0.243
			C108.318,118.363,97.209,119.882,89.419,113.967z M80.308,99.886c0.138-0.012,0.24-0.133,0.228-0.271
			c-0.489-5.631,2.092-11.494,6.574-14.937c0.109-0.084,0.13-0.241,0.046-0.351c-0.085-0.11-0.242-0.129-0.351-0.046
			c-4.614,3.544-7.271,9.58-6.768,15.376c0.011,0.13,0.121,0.229,0.248,0.229C80.293,99.887,80.3,99.887,80.308,99.886z
			 M81.279,105.041c0.126-0.057,0.182-0.205,0.124-0.331c-0.346-0.765-0.535-1.613-0.545-2.454c-0.002-0.138-0.1-0.266-0.253-0.246
			c-0.138,0.002-0.248,0.115-0.247,0.253c0.012,0.909,0.216,1.826,0.59,2.653c0.042,0.092,0.132,0.147,0.228,0.147
			C81.21,105.063,81.246,105.056,81.279,105.041z"/>
		<polygon style="fill:#FFFFFF;" points="98.994,107.597 90.878,101.553 92.987,98.72 98.43,102.773 105.908,93.852 108.614,96.12 
					"/>
		<path style="fill:#263238;" d="M166.676,132.963l-47.013-8.999l0.309-1.617l47.013,8.999L166.676,132.963z M158.236,170.58
			l-47.117-8.438l-0.29,1.62l47.117,8.438L158.236,170.58z M159.561,164.276l-47.117-8.438l-0.29,1.62l47.117,8.438L159.561,164.276
			z M160.887,157.972l-47.117-8.438l-0.29,1.62l47.117,8.438L160.887,157.972z M162.213,151.669l-47.117-8.438l-0.29,1.62
			l47.117,8.438L162.213,151.669z M163.538,145.365l-47.117-8.438l-0.29,1.62l47.117,8.438L163.538,145.365z M157.177,176.596
			l-47.117-8.438l-0.29,1.62l47.117,8.438L157.177,176.596z M166.262,136.2l-47.013-8.999l-0.309,1.616l47.013,8.999L166.262,136.2z
			 M164.369,140.974l-47.013-8.999l-0.309,1.616l47.013,8.999L164.369,140.974z M170.266,110.579l-47.013-8.999l-0.309,1.616
			l47.013,8.999L170.266,110.579z M168.003,120.68l-47.013-8.999l-0.309,1.616l47.013,8.999L168.003,120.68z M138.912,110.013
			l-16.561-3.17l-0.309,1.616l16.561,3.17L138.912,110.013z M169.173,115.754l-28.514-5.458l-0.309,1.616l28.514,5.458
			L169.173,115.754z M136.989,120.262l-16.561-3.17l-0.309,1.616l16.561,3.17L136.989,120.262z M167.25,126.003l-28.514-5.458
			l-0.309,1.616l28.514,5.458L167.25,126.003z"/>
		<polygon style="fill:#263238;" points="153.286,84.988 155.024,80.346 146.748,78.864 146.663,83.802 133.689,81.479 
			131.568,93.326 164.534,99.23 166.656,87.383 		"/>
	</g>
</g>
<g id="Text_4">
	<rect x="417.28" y="270.973" style="fill:#407BFF;" width="118.023" height="41.744"/>
	<path style="fill:#FFFFFF;" d="M449.447,289.781h-2.354v-1.387h6.412v1.387h-2.354v5.971h-1.703V289.781z M460.116,294.386v1.366
		h-5.697v-7.358h5.561v1.366h-3.868v1.598h3.416v1.324h-3.416v1.703H460.116z M462.202,295.642
		c-0.543-0.157-0.978-0.362-1.309-0.615l0.578-1.282c0.315,0.231,0.69,0.417,1.125,0.558c0.435,0.14,0.869,0.21,1.304,0.21
		c0.483,0,0.841-0.072,1.072-0.216c0.23-0.144,0.347-0.334,0.347-0.572c0-0.176-0.068-0.321-0.205-0.436
		c-0.137-0.115-0.313-0.208-0.525-0.278c-0.214-0.07-0.503-0.147-0.867-0.231c-0.561-0.133-1.02-0.267-1.377-0.399
		s-0.664-0.347-0.92-0.642c-0.256-0.294-0.384-0.686-0.384-1.177c0-0.428,0.115-0.815,0.347-1.161
		c0.231-0.348,0.58-0.622,1.046-0.825c0.466-0.203,1.035-0.305,1.708-0.305c0.47,0,0.929,0.056,1.377,0.168
		c0.448,0.112,0.841,0.273,1.178,0.483l-0.525,1.293c-0.681-0.386-1.36-0.578-2.04-0.578c-0.477,0-0.828,0.077-1.056,0.231
		c-0.229,0.154-0.342,0.357-0.342,0.609c0,0.252,0.131,0.439,0.395,0.563c0.263,0.122,0.663,0.243,1.203,0.362
		c0.561,0.133,1.02,0.267,1.377,0.399c0.357,0.133,0.664,0.344,0.92,0.631c0.256,0.287,0.384,0.676,0.384,1.167
		c0,0.42-0.118,0.804-0.353,1.15c-0.234,0.347-0.587,0.622-1.057,0.825c-0.47,0.203-1.04,0.305-1.713,0.305
		C463.308,295.878,462.745,295.799,462.202,295.642z M469.597,289.781h-2.354v-1.387h6.412v1.387H471.3v5.971h-1.703V289.781z
		 M474.568,288.395h1.703v7.358h-1.703V288.395z M484.764,288.395v7.358h-1.398l-3.669-4.467v4.467h-1.682v-7.358h1.409l3.657,4.467
		v-4.467H484.764z M491.48,291.957h1.556v2.985c-0.399,0.302-0.861,0.533-1.387,0.694c-0.526,0.161-1.055,0.241-1.588,0.241
		c-0.764,0-1.45-0.163-2.059-0.488c-0.61-0.326-1.088-0.778-1.435-1.356c-0.348-0.578-0.52-1.231-0.52-1.96
		c0-0.729,0.173-1.382,0.52-1.96c0.347-0.578,0.828-1.03,1.444-1.357c0.617-0.326,1.311-0.488,2.082-0.488
		c0.645,0,1.229,0.108,1.755,0.325c0.525,0.218,0.967,0.533,1.324,0.946l-1.093,1.009c-0.525-0.554-1.16-0.83-1.902-0.83
		c-0.47,0-0.887,0.098-1.251,0.294c-0.364,0.196-0.648,0.474-0.852,0.831c-0.203,0.357-0.305,0.767-0.305,1.229
		c0,0.455,0.102,0.861,0.305,1.219c0.203,0.357,0.485,0.637,0.847,0.836c0.36,0.2,0.772,0.3,1.234,0.3
		c0.49,0,0.932-0.105,1.324-0.315V291.957z"/>
	<rect x="526.139" y="270.922" style="opacity:0.3;" width="9.164" height="41.744"/>
</g>
<g id="Text_3">
	<rect x="298.87" y="223.471" style="fill:#407BFF;" width="127.708" height="41.744"/>
	<path style="fill:#FFFFFF;" d="M311.15,239.329h1.703v7.357h-1.703V239.329z M321.293,246.686l-0.011-4.415l-2.165,3.638h-0.768
		l-2.155-3.543v4.32h-1.598v-7.357h1.409l2.754,4.572l2.711-4.572h1.398l0.021,7.357H321.293z M329.518,239.654
		c0.479,0.218,0.85,0.526,1.108,0.926c0.26,0.399,0.39,0.872,0.39,1.419c0,0.539-0.13,1.011-0.39,1.413
		c-0.259,0.403-0.629,0.712-1.108,0.925c-0.48,0.214-1.046,0.321-1.697,0.321h-1.482v2.028h-1.703v-7.357h3.186
		C328.472,239.329,329.038,239.438,329.518,239.654z M328.892,242.939c0.267-0.221,0.399-0.534,0.399-0.941
		c0-0.414-0.133-0.73-0.399-0.951c-0.266-0.221-0.655-0.332-1.166-0.332h-1.388v2.555h1.388
		C328.237,243.27,328.626,243.16,328.892,242.939z M332.224,239.329h1.703v5.97h3.69v1.388h-5.393V239.329z M344.27,245.32v1.366
		h-5.697v-7.357h5.561v1.366h-3.868v1.598h3.416v1.324h-3.416v1.703H344.27z M352.322,246.686l-0.011-4.415l-2.165,3.638h-0.768
		l-2.155-3.543v4.32h-1.598v-7.357h1.409l2.754,4.572l2.711-4.572h1.398l0.022,7.357H352.322z M361.361,245.32v1.366h-5.697v-7.357
		h5.56v1.366h-3.868v1.598h3.416v1.324h-3.416v1.703H361.361z M369.464,239.329v7.357h-1.397l-3.669-4.467v4.467h-1.682v-7.357
		h1.409l3.657,4.467v-4.467H369.464z M372.734,240.716h-2.354v-1.387h6.412v1.387h-2.354v5.971h-1.703V240.716z M382.184,245.11
		h-3.416l-0.651,1.576h-1.745l3.279-7.357h1.682l3.29,7.357h-1.786L382.184,245.11z M381.647,243.817L380.481,241l-1.167,2.817
		H381.647z M386.546,240.716h-2.354v-1.387h6.412v1.387h-2.354v5.971h-1.703V240.716z M391.518,239.329h1.703v7.357h-1.703V239.329z
		 M396.463,246.318c-0.613-0.329-1.093-0.783-1.439-1.361c-0.348-0.578-0.521-1.227-0.521-1.949c0-0.722,0.173-1.372,0.521-1.95
		c0.347-0.578,0.826-1.031,1.439-1.361c0.613-0.329,1.302-0.493,2.065-0.493s1.45,0.164,2.061,0.493
		c0.609,0.33,1.089,0.783,1.439,1.361c0.351,0.578,0.525,1.229,0.525,1.95c0,0.722-0.175,1.371-0.525,1.949
		c-0.351,0.578-0.83,1.032-1.439,1.361c-0.61,0.33-1.297,0.494-2.061,0.494S397.076,246.648,396.463,246.318z M399.706,245.063
		c0.35-0.199,0.625-0.479,0.824-0.836c0.2-0.357,0.3-0.764,0.3-1.219c0-0.455-0.1-0.862-0.3-1.22
		c-0.199-0.357-0.475-0.636-0.824-0.835c-0.351-0.2-0.743-0.3-1.178-0.3c-0.435,0-0.827,0.1-1.177,0.3
		c-0.351,0.199-0.626,0.478-0.825,0.835c-0.2,0.357-0.3,0.765-0.3,1.22c0,0.455,0.1,0.861,0.3,1.219
		c0.199,0.357,0.475,0.637,0.825,0.836c0.35,0.2,0.742,0.3,1.177,0.3C398.963,245.362,399.355,245.263,399.706,245.063z
		 M410.584,239.329v7.357h-1.398l-3.669-4.467v4.467h-1.682v-7.357h1.409l3.657,4.467v-4.467H410.584z"/>
	<rect x="417.413" y="223.471" style="opacity:0.3;" width="9.164" height="41.744"/>
</g>
<g id="Text_2">
	<path style="fill:#407BFF;" d="M317.93,215.874H199.908v-41.308H317.93V215.874z M226.8,219.307c11.317,0,22.633,0,33.95,0
		c0.965,0,0.967-1.5,0-1.5c-11.317,0-22.633,0-33.95,0C225.835,217.807,225.833,219.307,226.8,219.307L226.8,219.307z"/>
	<path style="fill:#FFFFFF;" d="M234.338,191.317h3.343c0.799,0,1.505,0.152,2.118,0.457s1.09,0.734,1.43,1.287
		c0.34,0.554,0.51,1.198,0.51,1.935c0,0.735-0.17,1.381-0.51,1.934c-0.34,0.554-0.816,0.983-1.43,1.288s-1.319,0.457-2.118,0.457
		h-3.343V191.317z M237.597,197.276c0.735,0,1.322-0.204,1.761-0.614c0.438-0.41,0.656-0.966,0.656-1.666
		c0-0.701-0.219-1.256-0.656-1.666c-0.438-0.41-1.025-0.615-1.761-0.615h-1.556v4.561H237.597z M248.717,197.308v1.366h-5.697
		v-7.357h5.561v1.366h-3.868v1.598h3.416v1.324h-3.416v1.703H248.717z M250.803,198.564c-0.543-0.157-0.979-0.362-1.309-0.615
		l0.578-1.282c0.315,0.231,0.69,0.417,1.125,0.558c0.434,0.14,0.869,0.21,1.304,0.21c0.483,0,0.841-0.072,1.072-0.216
		c0.23-0.144,0.347-0.334,0.347-0.572c0-0.176-0.068-0.321-0.205-0.436c-0.137-0.115-0.313-0.208-0.525-0.278
		c-0.214-0.07-0.503-0.147-0.867-0.231c-0.561-0.133-1.02-0.267-1.377-0.399c-0.357-0.133-0.664-0.347-0.92-0.642
		c-0.256-0.294-0.384-0.687-0.384-1.177c0-0.428,0.115-0.814,0.347-1.161c0.231-0.348,0.58-0.622,1.046-0.825
		c0.466-0.203,1.035-0.305,1.708-0.305c0.47,0,0.929,0.056,1.377,0.168c0.448,0.112,0.841,0.273,1.178,0.483l-0.525,1.293
		c-0.681-0.386-1.36-0.578-2.04-0.578c-0.477,0-0.828,0.077-1.056,0.232c-0.229,0.154-0.342,0.357-0.342,0.609
		c0,0.252,0.131,0.439,0.395,0.563c0.263,0.122,0.663,0.243,1.203,0.362c0.561,0.133,1.02,0.267,1.377,0.399
		c0.357,0.133,0.664,0.344,0.92,0.631c0.256,0.287,0.384,0.676,0.384,1.167c0,0.42-0.118,0.804-0.352,1.15
		c-0.234,0.347-0.587,0.622-1.057,0.825c-0.47,0.203-1.04,0.305-1.713,0.305C251.908,198.8,251.346,198.721,250.803,198.564z
		 M256.778,191.317h1.703v7.357h-1.703V191.317z M265.197,194.879h1.556v2.985c-0.399,0.302-0.861,0.533-1.387,0.694
		c-0.526,0.161-1.055,0.241-1.588,0.241c-0.764,0-1.45-0.163-2.059-0.488c-0.61-0.326-1.088-0.778-1.435-1.356
		c-0.348-0.578-0.521-1.231-0.521-1.96s0.173-1.382,0.521-1.96c0.347-0.578,0.828-1.03,1.444-1.356
		c0.617-0.326,1.311-0.488,2.082-0.488c0.645,0,1.23,0.108,1.755,0.325c0.525,0.218,0.967,0.533,1.324,0.946l-1.093,1.009
		c-0.525-0.554-1.16-0.83-1.902-0.83c-0.47,0-0.887,0.098-1.251,0.294c-0.364,0.196-0.648,0.474-0.852,0.831
		c-0.203,0.357-0.305,0.767-0.305,1.23c0,0.455,0.102,0.861,0.305,1.219c0.203,0.357,0.485,0.637,0.847,0.836
		c0.36,0.2,0.772,0.3,1.234,0.3c0.49,0,0.932-0.105,1.324-0.315V194.879z M275.077,191.317v7.357h-1.397l-3.669-4.467v4.467h-1.682
		v-7.357h1.409l3.657,4.467v-4.467H275.077z"/>
	<rect x="308.766" y="174.566" style="opacity:0.3;" width="9.164" height="41.308"/>
</g>
<g id="Text_1">
	<polygon style="fill:#407BFF;" points="195.253,170.815 77.23,170.388 77.23,129.506 195.253,129.506 	"/>
	<path style="fill:#FFFFFF;" d="M93.988,153.749l-1.419-2.05h-0.084h-1.482v2.05h-1.703v-7.358h3.185
		c0.652,0,1.218,0.109,1.698,0.326c0.48,0.217,0.85,0.525,1.109,0.925s0.389,0.873,0.389,1.419c0,0.547-0.131,1.018-0.394,1.414
		c-0.263,0.396-0.636,0.699-1.12,0.909l1.65,2.365H93.988z M93.558,148.109c-0.267-0.221-0.655-0.331-1.167-0.331h-1.387v2.564
		h1.387c0.512,0,0.9-0.112,1.167-0.336c0.266-0.225,0.399-0.54,0.399-0.946C93.957,148.648,93.824,148.33,93.558,148.109z
		 M102.723,152.382v1.366h-5.697v-7.358h5.56v1.367h-3.868v1.598h3.417v1.324h-3.417v1.703H102.723z M112.015,154.537
		c-0.238,0.294-0.527,0.519-0.867,0.673c-0.34,0.154-0.713,0.231-1.119,0.231c-0.547,0-1.04-0.118-1.482-0.352
		c-0.441-0.235-0.946-0.65-1.513-1.246c-0.666-0.084-1.26-0.298-1.782-0.641c-0.522-0.343-0.929-0.787-1.219-1.329
		c-0.291-0.543-0.436-1.144-0.436-1.803c0-0.722,0.173-1.372,0.52-1.95s0.827-1.032,1.44-1.361c0.613-0.329,1.302-0.494,2.065-0.494
		s1.451,0.165,2.06,0.494c0.61,0.33,1.09,0.783,1.44,1.361c0.351,0.578,0.526,1.228,0.526,1.95c0,0.855-0.24,1.605-0.72,2.249
		c-0.48,0.645-1.116,1.093-1.908,1.346c0.175,0.182,0.345,0.313,0.51,0.394c0.165,0.081,0.342,0.121,0.531,0.121
		c0.455,0,0.855-0.183,1.198-0.547L112.015,154.537z M105.619,151.289c0.2,0.357,0.475,0.636,0.825,0.835
		c0.351,0.2,0.743,0.3,1.177,0.3s0.827-0.1,1.177-0.3c0.351-0.2,0.625-0.478,0.825-0.835c0.2-0.357,0.299-0.764,0.299-1.219
		c0-0.455-0.1-0.862-0.299-1.219c-0.2-0.357-0.475-0.636-0.825-0.836c-0.351-0.2-0.743-0.299-1.177-0.299s-0.827,0.1-1.177,0.299
		c-0.351,0.2-0.625,0.479-0.825,0.836c-0.2,0.357-0.299,0.764-0.299,1.219C105.319,150.525,105.419,150.932,105.619,151.289z
		 M113.744,153.002c-0.585-0.581-0.877-1.412-0.877-2.491v-4.121h1.703v4.058c0,1.317,0.546,1.976,1.64,1.976
		c0.532,0,0.939-0.16,1.219-0.479c0.28-0.319,0.42-0.818,0.42-1.498v-4.058h1.682v4.121c0,1.079-0.292,1.91-0.877,2.491
		c-0.585,0.582-1.403,0.872-2.455,0.872C115.147,153.874,114.329,153.584,113.744,153.002z M121.212,146.391h1.703v7.358h-1.703
		V146.391z M129.347,153.749l-1.419-2.05h-0.084h-1.482v2.05h-1.703v-7.358h3.185c0.652,0,1.218,0.109,1.698,0.326
		s0.85,0.525,1.109,0.925s0.389,0.873,0.389,1.419c0,0.547-0.131,1.018-0.394,1.414c-0.263,0.396-0.636,0.699-1.12,0.909l1.65,2.365
		H129.347z M128.916,148.109c-0.267-0.221-0.655-0.331-1.167-0.331h-1.387v2.564h1.387c0.512,0,0.9-0.112,1.167-0.336
		c0.266-0.225,0.399-0.54,0.399-0.946C129.315,148.648,129.182,148.33,128.916,148.109z M138.081,152.382v1.366h-5.697v-7.358h5.56
		v1.367h-3.868v1.598h3.417v1.324h-3.417v1.703H138.081z M146.133,153.749l-0.01-4.415l-2.166,3.637h-0.767l-2.155-3.542v4.32
		h-1.598v-7.358h1.408l2.754,4.572l2.712-4.572h1.398l0.021,7.358H146.133z M155.172,152.382v1.366h-5.697v-7.358h5.56v1.367h-3.868
		v1.598h3.416v1.324h-3.416v1.703H155.172z M163.276,146.391v7.358h-1.398l-3.668-4.467v4.467h-1.682v-7.358h1.408l3.658,4.467
		v-4.467H163.276z M166.544,147.778h-2.355v-1.388h6.412v1.388h-2.354v5.97h-1.703V147.778z M172.194,153.638
		c-0.543-0.158-0.98-0.363-1.309-0.615l0.578-1.283c0.315,0.231,0.69,0.417,1.124,0.557c0.435,0.141,0.869,0.21,1.303,0.21
		c0.484,0,0.841-0.072,1.072-0.215c0.231-0.144,0.347-0.335,0.347-0.573c0-0.175-0.068-0.32-0.204-0.436
		c-0.137-0.116-0.312-0.209-0.526-0.278c-0.214-0.07-0.503-0.148-0.867-0.232c-0.561-0.133-1.02-0.266-1.377-0.399
		c-0.357-0.133-0.664-0.347-0.919-0.641c-0.256-0.294-0.384-0.686-0.384-1.177c0-0.427,0.116-0.814,0.347-1.162
		c0.231-0.347,0.58-0.622,1.046-0.825c0.466-0.203,1.036-0.305,1.708-0.305c0.47,0,0.929,0.056,1.377,0.169
		c0.449,0.112,0.841,0.273,1.177,0.483l-0.525,1.293c-0.68-0.386-1.359-0.578-2.039-0.578c-0.477,0-0.829,0.077-1.057,0.231
		c-0.228,0.154-0.341,0.357-0.341,0.61c0,0.252,0.131,0.439,0.394,0.562c0.263,0.123,0.664,0.244,1.204,0.363
		c0.561,0.133,1.02,0.267,1.377,0.399c0.357,0.133,0.664,0.343,0.919,0.631c0.256,0.287,0.384,0.676,0.384,1.167
		c0,0.42-0.117,0.804-0.352,1.151c-0.235,0.347-0.587,0.622-1.056,0.825c-0.47,0.203-1.041,0.305-1.713,0.305
		C173.299,153.874,172.737,153.796,172.194,153.638z"/>
	<rect x="186.088" y="129.506" style="opacity:0.3;" width="9.164" height="41.308"/>
</g>
<g id="Arrows">
	<path style="fill:#407BFF;" d="M183.997,188.541l4.985,4.85l-4.985,4.85l-4.985,4.85v-5.42c-0.826,0.035-1.77,0.061-2.828,0.061
		c-1.816,0-3.918-0.074-6.117-0.297c-6.142-0.625-12.601-1.669-18.137-6.852c-2.841-2.662-4.714-5.842-5.725-9.723l8.204-2.138
		c0.612,2.348,1.635,4.098,3.316,5.673c3.285,3.076,7.174,3.992,13.2,4.605c3.198,0.326,6.171,0.279,8.086,0.186v-5.494
		L183.997,188.541z M285.247,232.413v5.494c-1.915,0.094-4.888,0.14-8.086-0.186c-6.026-0.614-9.915-1.53-13.2-4.605
		c-1.682-1.575-2.704-3.325-3.316-5.673l-8.204,2.138c1.011,3.881,2.884,7.061,5.725,9.723c5.535,5.183,11.995,6.227,18.137,6.852
		c2.199,0.224,4.302,0.297,6.117,0.297c1.058,0,2.002-0.026,2.828-0.061v5.42l4.985-4.85l4.985-4.85l-4.985-4.85L285.247,232.413z
		 M391.482,281.136v5.494c-1.915,0.094-4.888,0.14-8.086-0.186c-6.026-0.614-9.915-1.53-13.2-4.605
		c-1.682-1.575-2.704-3.325-3.316-5.673l-8.204,2.138c1.011,3.881,2.884,7.061,5.725,9.723c5.535,5.183,11.995,6.227,18.137,6.852
		c2.199,0.224,4.302,0.297,6.117,0.297c1.058,0,2.002-0.026,2.828-0.061v5.42l4.985-4.85l4.985-4.85l-4.985-4.85L391.482,281.136z
		 M534.402,331.2l-4.985-4.85v5.494c-1.916,0.093-4.888,0.14-8.086-0.186c-6.026-0.614-9.915-1.53-13.2-4.605
		c-1.682-1.575-2.704-3.325-3.316-5.673l-8.204,2.138c1.011,3.881,2.884,7.061,5.725,9.723c5.535,5.183,11.995,6.227,18.136,6.852
		c2.199,0.224,4.302,0.297,6.117,0.297c1.058,0,2.002-0.026,2.828-0.061v5.42l4.985-4.85l4.985-4.85L534.402,331.2z"/>
</g>
<g id="Character_2">
	<g>
		<g>
			<path style="fill:#B97964;" d="M592.292,269.396c0,0-9.602,25.72-9.043,25.925c0.559,0.206-21.799,6.95-21.799,6.95l3.579,7.304
				c0,0,28.709-6.082,30.627-8.448c1.918-2.367,8.714-29.848,8.714-29.848L592.292,269.396z"/>
			<path style="fill:#407BFF;" d="M606.421,242.249c5.065,3.695,7.786,15.177-7.867,37.529l-14.324-8.625
				c0,0,5.995-11.193,10.606-20.836C602.379,239.836,606.421,242.249,606.421,242.249z"/>
			<path style="opacity:0.4;fill:#FFFFFF;" d="M606.421,242.249c5.065,3.695,7.786,15.177-7.867,37.529l-14.324-8.625
				c0,0,5.995-11.193,10.606-20.836C602.379,239.836,606.421,242.249,606.421,242.249z"/>
			<path style="fill:#407BFF;" d="M606.303,241.853c4.023-0.25,18.864-0.557,35.289,2.74l0.294,61.65c0,0,0.427,8.336,1.489,16.706
				c-17.179,6.639-39.265,4.671-50.208-2.148c0.117,0.27,0.822-6.609,1.891-16.683c1.884-17.753,4.901-45.43,7.831-61.396
				C602.968,242.327,605.902,241.878,606.303,241.853z"/>
			<path style="opacity:0.4;fill:#FFFFFF;" d="M606.303,241.853c4.023-0.25,18.864-0.557,35.289,2.74l0.294,61.65
				c0,0,0.427,8.336,1.489,16.706c-17.179,6.639-39.265,4.671-50.208-2.148c0.117,0.27,0.822-6.609,1.891-16.683
				c1.884-17.753,4.901-45.43,7.831-61.396C602.968,242.327,605.902,241.878,606.303,241.853z"/>
			<polygon style="opacity:0.2;enable-background:new    ;" points="598.166,276.21 600.745,256.204 594.76,277.494 
				597.602,279.206 			"/>
			<polygon style="opacity:0.2;enable-background:new    ;" points="640.165,279.627 639.26,279.745 636,263.753 637.509,281.703 
				640.381,282.171 			"/>
			<path style="fill:#B97964;" d="M650.219,266.49c1.025,1.528,7.598,37.45,7.598,37.45l-11.977,2.55l-5.902-34.061L650.219,266.49z
				"/>
			<path style="fill:#407BFF;" d="M641.592,244.593c0,0,6.846,1.271,8.402,9.375c1.433,7.463,5.456,24.052,5.456,24.052
				l-16.19,2.097L636,260.709L641.592,244.593z"/>
			<path style="opacity:0.4;fill:#FFFFFF;" d="M641.592,244.593c0,0,6.846,1.271,8.402,9.375c1.433,7.463,5.456,24.052,5.456,24.052
				l-16.19,2.097L636,260.709L641.592,244.593z"/>
		</g>
		<polygon style="fill:#B97964;" points="585.555,442.559 579.157,459.827 573.358,457.953 575.359,439.727 		"/>
		<path style="fill:#263238;" d="M578.354,455.542l-2.953,0.437l-0.203-1.484c-0.176-1.278-0.88-2.092-2.158-1.917
			c-0.627,0.085-1.95,1.162-2.003,2.053c-0.139,2.375-2.377,3.139-2.377,3.139s-6.184,4.06-8.14,4.168
			c-1.284,0.071-2.468,0.565-3.344,1.97c-0.25,0.402-0.476,0.878-0.671,1.44c-0.08,0.23-0.156,0.476-0.226,0.736
			c-0.07,0.261-0.134,0.537-0.192,0.829l4.654,0.035l9.308,0.07l0,0h0c0,0,1.22-0.223,2.092-0.365
			c0.291-0.047,0.543-0.086,0.699-0.103c0.156-0.018,0.339,0.005,0.527,0.049c0.561,0.131,1.157,0.454,1.157,0.454l5.258,0.039
			c0,0,0.101-0.872,0.246-2.141l0.002,0c0.065-0.572,0.139-1.224,0.219-1.913c0.338-2.955,0.871-6.68,0.961-7.516
			C581.366,454.055,578.354,455.542,578.354,455.542z"/>
		<path style="fill:#407BFF;" d="M565.586,459.271c0.065-0.063,0.165-0.069,0.24-0.018c0.344,0.232,0.633,0.559,0.827,0.967
			c0.103,0.215-0.212,0.42-0.316,0.203c-0.173-0.363-0.425-0.652-0.726-0.856c-0.1-0.068-0.116-0.209-0.029-0.294
			C565.584,459.273,565.585,459.272,565.586,459.271z M566.698,458.628c-0.087,0.084-0.072,0.225,0.029,0.293
			c0.301,0.204,0.553,0.493,0.726,0.856c0.104,0.217,0.418,0.013,0.316-0.203c-0.195-0.408-0.483-0.735-0.827-0.968
			c-0.075-0.051-0.175-0.045-0.24,0.018C566.7,458.626,566.699,458.627,566.698,458.628z M567.849,458.026
			c-0.088,0.084-0.072,0.225,0.029,0.294c0.301,0.204,0.553,0.493,0.726,0.855c0.104,0.217,0.418,0.013,0.316-0.203
			c-0.195-0.408-0.483-0.735-0.827-0.968c-0.075-0.051-0.175-0.045-0.24,0.018C567.85,458.024,567.849,458.025,567.849,458.026z"/>
		<polygon style="fill:#B97964;" points="627.309,439.483 629.87,458.276 635.995,458.585 637.978,440.469 		"/>
		<path style="fill:#263238;" d="M641.209,467H627.51c0,0-0.299-0.575,0.043-2.107c0.052-0.239,0.12-0.501,0.209-0.787
			c0.005-0.014,0.008-0.029,0.013-0.043c0.128-0.424,0.275-0.945,0.431-1.508c0.628-2.293,1.366-5.29,1.366-5.29
			s2.279-4.879,4.946-3.661c2.339,1.068,1.784,4.127,1.784,4.127s0.229,1.796,2.003,3.379c1.097,0.978,2.188,1.736,2.712,2.953
			c0.098,0.228,0.175,0.469,0.231,0.732c0.006,0.032,0.013,0.065,0.017,0.098C641.374,465.479,641.367,466.167,641.209,467z"/>
		<path style="fill:#407BFF;" d="M635.75,458.5c-0.77-0.6-1.781-0.522-2.474,0.153c-0.186,0.182-0.473-0.104-0.286-0.286
			c0.865-0.844,2.1-0.891,3.046-0.154C636.241,458.374,635.953,458.658,635.75,458.5L635.75,458.5z M636.137,459.779
			c0.203,0.158,0.491-0.126,0.286-0.286c-0.946-0.737-2.181-0.69-3.046,0.153c-0.187,0.182,0.1,0.468,0.286,0.286
			C634.355,459.257,635.366,459.179,636.137,459.779L636.137,459.779z M636.525,460.955c0.203,0.158,0.491-0.126,0.286-0.286
			c-0.946-0.737-2.181-0.69-3.046,0.154c-0.187,0.182,0.1,0.468,0.286,0.286C634.744,460.433,635.755,460.355,636.525,460.955
			L636.525,460.955z"/>
		<g>
			<path style="fill:#263238;" d="M641.464,320.284l-29.571,0.251l-17.999-0.546c0,0-12.644,54.493-13.716,64.755
				c-1.072,10.262-10.291,64.299-10.291,64.299l13.996,3.073c0,0,15.913-57.777,17.061-63.329c1-4.839,12.058-35.863,14.882-43.751
				c0.284,1.616,0.575,3.238,0.872,4.848c0.714,7.273,3.005,30.463,4.002,39.093c0,0,2.167,49.295,4.681,63.61l13.171,0.022
				c1.739-20.322,2.854-91.703,2.854-91.703l-0.002-0.001C642.381,345.401,641.464,320.284,641.464,320.284z"/>
			<path d="M601.276,328.137c0.09-0.297,0.556-0.169,0.465,0.128c-1.722,5.659-6.319,10.203-11.999,11.856
				c-0.299,0.087-0.426-0.379-0.128-0.465C595.131,338.05,599.603,333.635,601.276,328.137L601.276,328.137z M615.816,328.136
				c-0.148,2.18-0.295,4.367-0.442,6.547c-0.078-0.039-0.171-0.031-0.256,0.039c-0.768,0.675-1.73,0.047-2.11-0.698
				c-0.341-0.667-0.411-1.505-0.458-2.234c-0.101-1.435,0.046-2.863,0.396-4.259c0.078-0.295-0.388-0.427-0.466-0.124
				c-0.496,1.986-0.737,4.344-0.101,6.33c0.388,1.226,1.776,2.335,2.963,1.42c-0.163,2.475-0.326,4.949-0.496,7.416
				c-0.016,0.31,0.465,0.31,0.481,0c0.326-4.81,0.644-9.627,0.97-14.436C616.313,327.826,615.832,327.826,615.816,328.136z
				 M630.44,328.956c-0.068,6.376,4.84,11.715,11.187,12.216c0.304,0.024,0.303-0.45,0-0.474
				c-6.09-0.481-10.777-5.641-10.713-11.742C630.918,328.651,630.444,328.65,630.44,328.956L630.44,328.956z M629.227,392.972
				c1.976,0.729,4.098,0.741,6.082,0.034c0.285-0.102,0.162-0.56-0.126-0.457c-1.913,0.681-3.925,0.669-5.83-0.034
				C629.067,392.409,628.943,392.867,629.227,392.972L629.227,392.972z"/>
			<path style="fill:#407BFF;" d="M592.853,315.78c15.803,2.117,32.136,1.468,48.914-1.491l0.629,7.259
				c-17.341,3.013-35.406,3.223-50.103,0.212L592.853,315.78z"/>
			<path style="opacity:0.3;" d="M592.853,315.78c15.803,2.117,32.136,1.468,48.914-1.491l0.629,7.259
				c-17.341,3.013-35.406,3.223-50.103,0.212L592.853,315.78z"/>
			<path style="fill:#407BFF;" d="M624.732,323.778c0.113,0.705-3.529,27.546,4.314,28.706c7.843,1.161,21.868-2.733,21.972-6.707
				c0.104-3.974-2.091-26.397-5.752-26.397S624.732,323.778,624.732,323.778z"/>
			<path style="opacity:0.3;" d="M624.732,323.778c0.113,0.705-3.529,27.546,4.314,28.706c7.843,1.161,21.868-2.733,21.972-6.707
				c0.104-3.974-2.091-26.397-5.752-26.397S624.732,323.778,624.732,323.778z"/>
			<path style="fill:#263238;" d="M618.102,320.245c-0.433-0.116-0.868-0.198-1.305-0.264c-0.077-1.643-0.263-3.213-0.624-3.516
				c-0.197-0.164-0.563-0.471-6.95-0.147c-0.605,0.029-1.095,0.532-1.193,1.223c-0.877,6.218,0.005,6.67,0.381,6.862
				c0.61,0.313,2.642,0.486,4.516,0.486c1.427,0,2.764-0.1,3.31-0.317c0.095-0.038,0.384-0.152,0.488-0.446
				c0.086-0.241,0.139-1.605,0.108-3.12c0.338,0.057,0.675,0.114,1.01,0.204c0.044,0.012,0.087,0.018,0.13,0.018
				c0.221,0,0.423-0.147,0.482-0.37C618.527,320.591,618.369,320.316,618.102,320.245z M615.807,323.669
				c-0.947,0.325-6.015,0.318-6.915-0.14c-0.245-0.25-0.413-2.015,0.128-5.848c0.031-0.22,0.155-0.36,0.253-0.365h0.001
				c2.124-0.107,3.709-0.147,4.757-0.147c0.806,0,1.293,0.023,1.462,0.055c0.13,0.366,0.234,1.464,0.298,2.663
				c-1.214-0.077-2.437,0.015-3.658,0.32c-0.268,0.067-0.43,0.339-0.363,0.607c0.067,0.267,0.335,0.428,0.607,0.363
				c1.154-0.291,2.31-0.372,3.457-0.288C615.873,322.095,615.87,323.228,615.807,323.669z"/>
			<path style="opacity:0.3;" d="M625.574,330.203c0.164,0.041,21.562-2.177,21.562-2.177s-0.821-6.587-2.095-7.072
				c-1.273-0.485-17.167,1.265-18.235,2.341C625.738,324.37,625.574,330.203,625.574,330.203z"/>
			<g>
				<path style="fill:#E0E0E0;" d="M633.819,306.485l-0.994-0.107l-0.03,0.274l-0.134,1.246c-0.005,0.05,0.004,0.101,0.026,0.15
					l0.247,0.528c0.055,0.117,0.076,0.239,0.063,0.36l-1.326,12.306l0.551,0.059l0.503,0.054l1.324-12.288
					c0.014-0.132,0.07-0.257,0.161-0.366l0.372-0.443c0.038-0.045,0.061-0.097,0.067-0.152l0.133-1.238l0.03-0.273L633.819,306.485z
					"/>
				<path style="fill:#407BFF;" d="M634.293,320.967l-4.021-0.434c-0.37-0.04-0.695,0.155-0.725,0.435l-0.044,0.409
					c-0.03,0.28,0.245,0.539,0.616,0.579l0.092,0.01c-0.419,1.231-0.609,2.985-0.818,4.924c-0.128,1.189-0.353,2.113-0.43,2.931
					l4.618-0.467c0.072-0.632,0.13-1.179,0.217-1.99c0.209-1.94,0.398-3.693,0.25-4.986l-1.834-0.198l1.926,0.208
					c0.37,0.04,0.695-0.155,0.725-0.435l0.044-0.409C634.939,321.266,634.663,321.007,634.293,320.967z"/>
				<polygon style="opacity:0.3;" points="630.21,321.966 634.047,322.38 634.081,322.787 630.079,322.395 				"/>
			</g>
			<path style="fill:#EBEBEB;" d="M642.82,322.194c-0.553-0.609-0.99-1.09-1.068-1.54l-0.109-0.672l0.522-0.771
				c0.11-0.162,0.152-0.36,0.119-0.553l-0.555-3.204l-2.949-6.218c-0.022-0.046-0.071-0.072-0.121-0.063l-0.367,0.064l-0.231,0.04
				l-0.102,0.018v0l-0.111,0.019l-0.146,0.025l-0.367,0.064c-0.05,0.009-0.088,0.05-0.093,0.1l-0.685,6.848l0.555,3.204
				c0.033,0.193,0.14,0.365,0.298,0.48l0.751,0.551h0l0.123,0.669c0.078,0.45-0.171,1.05-0.487,1.809
				c-0.555,1.335-1.315,3.163-1.081,5.951l1.56-0.131c-0.202-2.408,0.446-3.966,0.967-5.219c0.397-0.955,0.74-1.779,0.584-2.678
				l-0.096-0.554c-0.011-0.065,0.032-0.126,0.097-0.137l0.064-0.011l0.09-0.016c0.063-0.011,0.123,0.031,0.134,0.094l0.096,0.556
				c0.156,0.898,0.756,1.56,1.451,2.325c0.912,1.004,2.047,2.253,2.667,4.589l1.513-0.402
				C645.123,324.729,643.791,323.264,642.82,322.194z M639.564,318.343c-0.529,0.089-1.037-0.154-1.31-0.578
				c-0.091-0.142-0.156-0.304-0.187-0.481c-0.013-0.075-0.016-0.149-0.016-0.222c0-0.024,0-0.047,0.001-0.071
				c0.003-0.057,0.012-0.113,0.022-0.169c0.009-0.047,0.021-0.092,0.035-0.137c0-0.001,0-0.002,0.001-0.003
				c0.056-0.176,0.148-0.337,0.264-0.473c0.01-0.011,0.019-0.023,0.029-0.034c0.037-0.041,0.08-0.079,0.125-0.115
				c0.013-0.011,0.026-0.021,0.039-0.031c0.046-0.034,0.093-0.066,0.141-0.094c0.018-0.01,0.038-0.019,0.057-0.029
				c0.042-0.022,0.085-0.044,0.126-0.06c0.07-0.026,0.143-0.047,0.219-0.061c0,0.002,0.001,0.004,0.001,0.004
				c0.708-0.123,1.386,0.344,1.508,1.052c0.015,0.089,0.021,0.176,0.019,0.263C640.619,317.708,640.181,318.234,639.564,318.343z"/>
			<path style="fill:#407BFF;" d="M646.427,328.035l-2.204,0.228c-0.611-2.298-1.777-3.921-2.678-4.912
				c-0.711-0.784-1.326-1.46-1.49-2.404l1.985-0.344c0.07,0.405,0.494,0.871,1.029,1.461
				C644.052,323.147,645.786,325.018,646.427,328.035z M637.994,321.305c0.07,0.405-0.172,0.987-0.477,1.723
				c-0.561,1.35-1.464,3.221-1.227,6.047l2.14-0.203c-0.199-2.37,0.441-3.909,0.956-5.146c0.406-0.977,0.757-1.821,0.594-2.765
				L637.994,321.305z"/>
		</g>
		<g>
			<rect x="543.204" y="302.938" style="fill:#407BFF;" width="121.533" height="42.986"/>
			<rect x="655.366" y="302.938" style="opacity:0.3;" width="9.371" height="42.986"/>
			<path style="fill:#FFFFFF;" d="M562.428,329.112l-0.011-4.415l-2.165,3.638h-0.768l-2.155-3.543v4.32h-1.598v-7.357h1.409
				l2.754,4.572l2.711-4.572h1.398l0.021,7.357H562.428z M570.615,327.536h-3.416l-0.651,1.576h-1.745l3.279-7.357h1.682l3.29,7.357
				h-1.786L570.615,327.536z M570.079,326.243l-1.166-2.817l-1.167,2.817H570.079z M573.821,321.755h1.703v7.357h-1.703V321.755z
				 M584.017,321.755v7.357h-1.398l-3.669-4.467v4.467h-1.682v-7.357h1.409l3.657,4.467v-4.467H584.017z M587.286,323.142h-2.354
				v-1.387h6.412v1.387h-2.355v5.971h-1.703V323.142z M597.955,327.746v1.366h-5.697v-7.357h5.561v1.366h-3.868v1.598h3.416v1.324
				h-3.416v1.703H597.955z M606.059,321.755v7.357h-1.398l-3.669-4.467v4.467h-1.682v-7.357h1.409l3.657,4.467v-4.467H606.059z
				 M612.649,327.536h-3.416l-0.651,1.576h-1.745l3.279-7.357h1.682l3.29,7.357h-1.786L612.649,327.536z M612.113,326.243
				l-1.166-2.817l-1.167,2.817H612.113z M622.604,321.755v7.357h-1.397l-3.669-4.467v4.467h-1.682v-7.357h1.409l3.657,4.467v-4.467
				H622.604z M625.836,328.75c-0.605-0.326-1.082-0.778-1.429-1.356c-0.348-0.578-0.521-1.231-0.521-1.96
				c0-0.728,0.173-1.382,0.521-1.96c0.347-0.578,0.823-1.03,1.429-1.356c0.607-0.326,1.288-0.488,2.045-0.488
				c0.638,0,1.214,0.111,1.729,0.336c0.516,0.225,0.948,0.547,1.299,0.967l-1.094,1.009c-0.497-0.574-1.114-0.861-1.85-0.861
				c-0.456,0-0.862,0.1-1.22,0.3c-0.357,0.199-0.636,0.478-0.835,0.835c-0.2,0.357-0.3,0.765-0.3,1.22s0.1,0.861,0.3,1.219
				c0.199,0.357,0.477,0.637,0.835,0.836c0.357,0.2,0.764,0.3,1.22,0.3c0.735,0,1.353-0.291,1.85-0.873l1.094,1.01
				c-0.351,0.428-0.785,0.753-1.304,0.978c-0.519,0.224-1.097,0.336-1.734,0.336C627.12,329.238,626.442,329.075,625.836,328.75z
				 M637.75,327.746v1.366h-5.697v-7.357h5.561v1.366h-3.868v1.598h3.416v1.324h-3.416v1.703H637.75z"/>
		</g>
		<g>
			<path style="fill:#B97964;" d="M664.755,317.568c0,0-8.769,1.781-9.652,3.609c-0.883,1.828,2.012,1.729,2.012,1.729
				s-3.179,0.305-3.232,1.672c-0.064,1.641,2.969,1.523,2.969,1.523s-2.586,0.355-2.551,1.574c0.036,1.265,3.468,1.375,3.468,1.375
				s-1.773,0.595-1.27,1.429c0.504,0.834,7.785,1.21,9.949-0.123c2.165-1.332,2.308-10.694,1.919-12.743
				c-0.389-2.049-1.411-3.372-3.632-4.788L664.755,317.568L664.755,317.568z"/>
			<path style="opacity:0.2;" d="M657.818,329.049c-0.003-0.084,0.055-0.156,0.13-0.158l3.99-0.142
				c0.075-0.003,0.138,0.064,0.141,0.149c0.003,0.085-0.055,0.156-0.13,0.158l-3.99,0.142
				C657.883,329.201,657.82,329.134,657.818,329.049z M657.12,323.059c0.005,0,0.009,0,0.013-0.001l5.517-0.797
				c0.074-0.011,0.126-0.088,0.116-0.172c-0.01-0.084-0.082-0.145-0.153-0.133l-5.517,0.797c-0.074,0.011-0.126,0.088-0.116,0.172
				C656.99,323.004,657.051,323.061,657.12,323.059z M656.875,326.104c-0.005-0.085,0.052-0.157,0.126-0.162l5.36-0.344
				c0.086,0.009,0.139,0.06,0.144,0.145c0.005,0.084-0.052,0.157-0.126,0.162l-5.36,0.344c-0.002,0-0.002,0-0.003,0
				C656.942,326.252,656.88,326.188,656.875,326.104z"/>
		</g>
		<g>
			<path style="fill:#B97964;" d="M568.174,302.974c0,0-1.74,8.777-3.564,9.669c-1.824,0.892-1.738-2.004-1.738-2.004
				s-0.29,3.181-1.657,3.24c-1.641,0.071-1.537-2.962-1.537-2.962s-0.343,2.587-1.563,2.558c-1.265-0.03-1.392-3.462-1.392-3.462
				s-0.586,1.776-1.423,1.276c-0.836-0.5-1.246-7.779,0.077-9.95c1.322-2.171,10.683-2.358,12.734-1.979
				c2.051,0.379,3.379,1.395,4.805,3.61L568.174,302.974L568.174,302.974z"/>
			<path style="opacity:0.2;" d="M562.802,310.63c0-0.005,0-0.009,0.001-0.013l0.771-5.52c0.011-0.074,0.087-0.126,0.171-0.117
				c0.084,0.01,0.145,0.081,0.134,0.152l-0.771,5.52c-0.011,0.074-0.087,0.126-0.171,0.117
				C562.858,310.759,562.8,310.698,562.802,310.63z M559.758,310.889c0.085,0.004,0.157-0.052,0.161-0.127l0.319-5.361
				c-0.009-0.086-0.061-0.139-0.146-0.143c-0.084-0.004-0.156,0.052-0.161,0.127l-0.319,5.361c0,0.001,0,0.002,0,0.003
				C559.61,310.822,559.674,310.884,559.758,310.889z M556.808,309.96c0.084,0.003,0.155-0.056,0.158-0.13l0.123-3.991
				c0.002-0.075-0.065-0.137-0.149-0.14c-0.085-0.003-0.156,0.056-0.158,0.131l-0.123,3.991
				C556.657,309.895,556.724,309.957,556.808,309.96z"/>
		</g>
		<g>
			<path style="fill:#B97964;" d="M627.807,242.49c0,0-0.926-5.136,1.741-14.209c0-0.01-0.478-0.224-0.478-0.234
				c0.367-1.269,0.758-2.441,1.126-3.457c0.008-0.029,0.008-0.039,0.008-0.039l-12.452,7.633c0.281,2.906-0.782,8.514-1.412,10.882
				c0,0-1.585,4.287,4.125,4.495C624.636,247.714,627.807,242.49,627.807,242.49z"/>
			<path style="opacity:0.2;" d="M617.524,236.465l7.156-1.586c-0.657,2.221-2.635,4.85-7.611,5.047
				C617.069,239.926,617.574,237.439,617.524,236.465z"/>
			<path style="fill:#263238;" d="M609.243,210.883c-1.473,2.869-2.015,9.188,2.568,7.887
				C616.394,217.47,611.775,205.952,609.243,210.883z"/>
			<path style="fill:#B97964;" d="M630.323,218.714c-0.867,7.874-1.197,12.332-5.387,16.155c-6.303,5.751-15.668,1.763-17.175-6.234
				c-1.356-7.198,0.289-18.865,8.183-21.559C623.72,204.421,631.189,210.84,630.323,218.714z"/>
			<path style="fill:#263238;" d="M632.057,209.477c-0.874-4.404-12.052-5.189-15.206-3.113c-0.471,0.31,5.832,3.868,5.447,3.706
				l2.991,1.199c0.474-0.081,1.367,0.51,1.774,1.989c0,0-1.564,8.305,1.697,11.976c3.507-1.417,4.515-2.772,5.522-5.587
				C635.783,215.452,633.72,211.974,632.057,209.477z"/>
			<path style="fill:#B97964;" d="M633.123,225.447c-0.73,2.003-2.32,3.473-3.924,4.175c-2.413,1.057-4.01-1.022-3.667-3.499
				c0.309-2.23,1.937-5.466,4.517-5.477C632.591,220.637,633.957,223.158,633.123,225.447z"/>
			<path style="fill:#263238;" d="M618.909,220.447c-0.039,0.808-0.499,1.438-1.028,1.408c-0.529-0.031-0.926-0.711-0.887-1.519
				c0.039-0.808,0.499-1.438,1.028-1.408C618.551,218.959,618.948,219.639,618.909,220.447z M610.089,218.703
				c-0.529-0.031-0.989,0.599-1.028,1.408c-0.039,0.808,0.358,1.488,0.887,1.519c0.529,0.031,0.989-0.6,1.028-1.408
				C611.015,219.414,610.618,218.734,610.089,218.703z"/>
			<path style="fill:#A24E3F;" d="M613.576,219.899c0,0-2.752,3.892-3.651,5.487c1.076,1.07,3.036,0.695,3.036,0.695
				L613.576,219.899z"/>
			<path style="opacity:0.2;" d="M627.705,225.618c-0.013,0-0.026-0.001-0.04-0.003c-0.137-0.022-0.229-0.15-0.207-0.287
				c0.117-0.721,0.422-1.401,0.882-1.967c0.313-0.385,0.835-0.873,1.542-1.011c0.703-0.138,1.424,0.15,1.757,0.698
				c0.071,0.118,0.034,0.272-0.084,0.344c-0.116,0.07-0.271,0.035-0.344-0.084c-0.222-0.366-0.737-0.563-1.233-0.467
				c-0.559,0.11-0.988,0.516-1.249,0.836c-0.405,0.499-0.674,1.098-0.776,1.732C627.932,225.53,627.826,225.618,627.705,225.618z"/>
			<g>
				<path d="M620.685,226.216l-6.862,2.383c0.411,0.749,0.83,1.507,1.421,2.124s1.337,0.874,2.191,0.893
					c1.222,0.027,2.367-0.68,2.867-1.796C620.802,228.705,620.808,227.432,620.685,226.216z"/>
			</g>
			<path style="fill:#FFFFFF;" d="M614.375,228.407c0,0,0.475,0.858,0.906,0.983c0.431,0.125,5.481-1.899,5.481-1.899l-0.077-1.275
				L614.375,228.407z"/>
			<path style="fill:#DE5753;" d="M616.56,231.499c0,0,0.336-1.213,1.749-1.789c1.413-0.577,2.149-0.289,2.149-0.289
				s-0.41,1.438-1.742,1.947C617.385,231.876,616.56,231.499,616.56,231.499z"/>
			<path style="fill:#407BFF;" d="M608.346,211.893c0,0,5.605-11.619,16.298-8.453c10.692,3.165,11.308,9.547,9.834,15.896
				c0,0-9.948-5.023-14.351-6.606C615.724,211.146,608.346,211.893,608.346,211.893z"/>
			<path style="opacity:0.2;enable-background:new    ;" d="M608.346,211.893c0,0,5.605-11.619,16.298-8.453
				c10.692,3.165,11.308,9.547,9.834,15.896c0,0-9.948-5.023-14.351-6.606C615.724,211.146,608.346,211.893,608.346,211.893z"/>
			<path style="fill:#407BFF;" d="M614.387,210.299c-6.004-0.436-8.177-0.724-13.72,0.49c-0.888,0.194-1.8,0.439-2.5,1.02
				c-0.7,0.58-1.127,1.584-0.778,2.424c0.231,0.555,0.691,1.04,1.253,1.254c1.97,0.749,6.551,1.58,9.433,1.838l0.779-2.752
				c0.397-1.402,1.626-2.423,3.081-2.51c1.973-0.118,4.488-0.077,6.56,0.5c4.843,1.348,8.851,2.993,13.341,5.469
				c-3.613-3.055-6.067-4.563-10.698-6.223C619.883,211.359,617.98,210.56,614.387,210.299z"/>
			<g>
				<path style="fill:#407BFF;" d="M628.076,203.547c-0.353-0.388-0.904-0.569-1.426-0.521c-0.522,0.048-1.012,0.311-1.384,0.681
					l3.076,1.303C628.556,204.531,628.43,203.935,628.076,203.547z"/>
			</g>
			<path style="fill:#263238;" d="M621.068,216.734c-0.124,0.044-0.269,0.022-0.377-0.072c-1.285-1.106-2.632-0.743-2.646-0.739
				c-0.201,0.057-0.412-0.06-0.471-0.26c-0.059-0.2,0.058-0.409,0.258-0.466c0.071-0.02,1.758-0.476,3.353,0.897
				c0.159,0.137,0.178,0.375,0.041,0.533C621.183,216.677,621.128,216.713,621.068,216.734z M607.99,216.56
				c1.25-1.117,2.548-0.78,2.617-0.758c0.2,0.054,0.405-0.064,0.459-0.266c0.054-0.202-0.066-0.411-0.267-0.467
				c-0.078-0.011-1.757-0.471-3.314,0.922c-0.155,0.139-0.168,0.379-0.029,0.536c0.052,0.058,0.116,0.097,0.186,0.116
				C607.761,216.674,607.893,216.648,607.99,216.56z"/>
		</g>
	</g>
</g>
<g id="Character_1">
	<g>
		<path style="fill:#D4827D;" d="M80.177,361.913L80.177,361.913c-5.414-5.11-5.541-13.767-0.286-19.334l2.583-3.164l19.943,18.25
			l-2.922,3.421C94.24,366.652,85.59,367.023,80.177,361.913z"/>
		<g>
			
				<rect x="127.494" y="219.448" transform="matrix(0.7272 0.6864 -0.6864 0.7272 241.9515 -17.5402)" style="fill:#263238;" width="31.097" height="152.348"/>
			<polygon style="fill:#EEC1BB;" points="184.025,229.556 210.124,224.559 206.638,250.902 			"/>
			<path style="fill:#407BFF;" d="M202.285,226.06l6.792,6.411l1.202-7.456c0.058-0.359-0.264-0.663-0.62-0.585L202.285,226.06z"/>
		</g>
		<path style="opacity:0.2;fill:#FFFFFF;" d="M190.782,236.521L90.431,342.635l9.232,8.715l99.58-107.719
			C199.243,243.631,183.162,250.902,190.782,236.521z"/>
		<g>
			<path style="fill:#263238;" d="M99.947,363.099L77.99,342.372c-0.848-0.801-0.887-2.138-0.086-2.986l0.024-0.026
				c0.801-0.848,2.138-0.887,2.986-0.086L102.871,360c0.848,0.801,0.887,2.138,0.086,2.986l-0.024,0.026
				C102.132,363.861,100.795,363.9,99.947,363.099z"/>
			<path style="opacity:0.3;fill:#FFFFFF;" d="M99.947,363.099L77.99,342.372c-0.848-0.801-0.887-2.138-0.086-2.986l0.024-0.026
				c0.801-0.848,2.138-0.887,2.986-0.086L102.871,360c0.848,0.801,0.887,2.138,0.086,2.986l-0.024,0.026
				C102.132,363.861,100.795,363.9,99.947,363.099z"/>
		</g>
		<g>
			<path style="fill:#263238;" d="M103.039,360.164l-21.956-20.726c-0.848-0.801-0.887-2.138-0.086-2.986l0.024-0.026
				c0.801-0.848,2.138-0.887,2.986-0.086l21.956,20.726c0.848,0.801,0.887,2.138,0.086,2.986l-0.024,0.026
				C105.224,360.926,103.887,360.965,103.039,360.164z"/>
			<path style="opacity:0.2;fill:#FFFFFF;" d="M103.039,360.164l-21.956-20.726c-0.848-0.801-0.887-2.138-0.086-2.986l0.024-0.026
				c0.801-0.848,2.138-0.887,2.986-0.086l21.956,20.726c0.848,0.801,0.887,2.138,0.086,2.986l-0.024,0.026
				C105.224,360.926,103.887,360.965,103.039,360.164z"/>
		</g>
		<g>
			<path style="fill:#263238;" d="M105.804,357.235l-21.957-20.726c-0.848-0.801-0.887-2.138-0.086-2.986l0.024-0.026
				c0.801-0.848,2.138-0.887,2.986-0.086l21.956,20.726c0.848,0.801,0.887,2.138,0.086,2.986l-0.024,0.026
				C107.989,357.997,106.652,358.036,105.804,357.235z"/>
			<path style="opacity:0.3;fill:#FFFFFF;" d="M105.804,357.235l-21.957-20.726c-0.848-0.801-0.887-2.138-0.086-2.986l0.024-0.026
				c0.801-0.848,2.138-0.887,2.986-0.086l21.956,20.726c0.848,0.801,0.887,2.138,0.086,2.986l-0.024,0.026
				C107.989,357.997,106.652,358.036,105.804,357.235z"/>
		</g>
		<g>
			<path style="fill:#EEC1BB;" d="M184.025,229.556c-1.422,1.818-2.45,3.744-3.137,5.749c-0.18,0.525-0.323,1.118-0.085,1.62
				c0.374,0.789,1.433,0.909,2.306,0.88c2.888-0.096,4.938-0.354,7.673-1.284c-0.949,1.775-2.007,3.454-3.06,5.535
				c-0.35,0.693-0.679,1.49-0.425,2.223c0.367,1.059,1.698,1.377,2.818,1.422c3.771,0.154,4.702-0.522,8.839-1.743
				c1.085,0.475-0.074,2.399-0.613,4.473c-0.643,2.47,0.092,4.706,2.232,4.595c1.597-0.083,5.038-0.898,6.064-2.125"/>
		</g>
	</g>
	<g>
		<g>
			<path style="fill:#895555;" d="M126.11,274.017c-0.402-0.012-3.186,17.715-2.999,18.236c0.687,1.917,21.154-2.364,21.154-2.364
				l1.29,5.472c0,0-8.937,4.34-18.551,5.908c-9.919,1.619-13.63-2.775-13.676-9.503c-0.042-6.165,2.508-21.156,2.508-21.156
				L126.11,274.017z"/>
		</g>
		<g>
			<path style="fill:#895555;" d="M173.808,370.397c-2.885-28.012-6.142-44.175-7.709-50.929c0,0,0,0,0,0
				c-0.001-0.002-0.001-0.003-0.001-0.005c-0.59-2.541-0.942-3.757-0.942-3.757l-0.195,0.056c-1.79-5.699-2.612-7.448-4.552-10.646
				l-31.383,4.412c-4.641,6.079-5.173,15.553-4.848,25.622c0.852,15.752,4.525,39.108,4.885,44.42c0.021,0.001,0.346-0.001,0.366,0
				c-0.024,4.065-2.56,17.766-2.563,23.869c-0.012,20.792,2.442,53.407,2.442,53.407l1.887,5.609l6.379-4.833
				c0,0,10.986-72.98,11.125-77.309c0.015-0.481,0.035-0.971,0.055-1.465l0.432-7.561c0.124-1.849,0.26-3.757,0.395-5.704
				l4.693,14.547c-2.745,11.903-5.852,49.171-3.906,79.102l8.318-1.181l12.189-62.293
				C172.098,388.879,174.566,377.755,173.808,370.397z"/>
			<path style="fill:#263238;" d="M138.586,456.556h-2.697c-0.61,0-1.175,0.309-1.536,0.801c-1.556,2.124-2.724,1.321-4.416-0.676
				c-1.076-0.125-1.365,1.109-1.453,1.441l-2.016,7.335c-0.175,0.612,0.179,1.251,0.792,1.426c0.109,0.031,0.222,0.046,0.335,0.044
				c3.276,0,4.825,0,8.902,0h12.469c3.399,0,4.103-3.425,2.703-3.742c-6.296-1.391-10.754-3.244-12.7-5.075
				C138.607,457.789,138.978,457.549,138.586,456.556z"/>
			<path style="fill:#407BFF;" d="M144.439,458.642c0.284-0.204,0.454-0.531,0.458-0.881c0.024-0.188-0.062-0.372-0.22-0.475
				c-0.845-0.599-4.218,0.977-4.596,1.162c-0.042,0.015-0.075,0.048-0.09,0.09c-0.028,0.078,0.012,0.163,0.09,0.191
				c0.829,0.196,1.676,0.305,2.527,0.326C143.247,459.116,143.888,458.971,144.439,458.642z M144.465,457.541
				c0.069,0.043,0.104,0.123,0.088,0.203c-0.014,0.252-0.136,0.486-0.335,0.643c-0.766,0.572-2.615,0.326-3.61,0.141
				C142.009,457.911,143.999,457.215,144.465,457.541z M140.195,458.765c1.013-0.423,3.135-2.087,3.02-2.967
				c-0.018-0.185-0.15-0.405-0.608-0.467c-1.849-0.211-2.642,3.108-2.642,3.249c-0.018,0.057-0.001,0.119,0.044,0.159
				c0.035,0.01,0.071,0.01,0.106,0L140.195,458.765z M142.546,455.604c0.343,0.035,0.343,0.159,0.343,0.203
				c0.097,0.537-1.444,1.92-2.545,2.501c0.229-0.775,0.907-2.712,2.078-2.712L142.546,455.604z M138.167,460.363
				c-0.046,0-0.092-0.013-0.133-0.038c-0.117-0.074-0.152-0.228-0.078-0.345c0.54-0.858,1.463-1.453,2.469-1.591
				c0.132-0.015,0.262,0.077,0.281,0.214c0.019,0.137-0.077,0.264-0.214,0.282c-0.86,0.117-1.65,0.626-2.113,1.36
				C138.331,460.322,138.251,460.363,138.167,460.363z M139.844,461.625c-0.046,0-0.092-0.013-0.133-0.038
				c-0.117-0.074-0.152-0.229-0.078-0.345c0.54-0.858,1.462-1.453,2.468-1.591c0.131-0.016,0.262,0.077,0.281,0.214
				c0.019,0.137-0.077,0.264-0.214,0.282c-0.861,0.117-1.65,0.626-2.113,1.36C140.008,461.584,139.927,461.625,139.844,461.625z
				 M141.93,462.685c-0.046,0-0.092-0.013-0.133-0.038c-0.117-0.074-0.152-0.229-0.078-0.346c0.541-0.858,1.464-1.452,2.469-1.59
				c0.13-0.014,0.262,0.077,0.281,0.214c0.019,0.137-0.077,0.264-0.214,0.282c-0.86,0.117-1.65,0.626-2.113,1.361
				C142.094,462.645,142.012,462.685,141.93,462.685z"/>
			<polygon style="opacity:0.3;" points="148.398,462.377 148.231,466.884 145.65,466.884 147.071,461.993 			"/>
			<path style="fill:#263238;" d="M159.104,456.72h-2.697c-0.61,0-1.175,0.309-1.536,0.801c-1.555,2.124-2.725,1.321-4.416-0.676
				c-1.076-0.125-1.365,1.109-1.453,1.441l-2.016,7.335c-0.175,0.613,0.179,1.251,0.792,1.426c0.109,0.031,0.222,0.046,0.335,0.044
				c3.276,0,4.825,0,8.902,0h12.468c3.399,0,4.103-3.425,2.703-3.742c-6.296-1.391-10.754-3.244-12.7-5.076
				C159.125,457.953,159.496,457.713,159.104,456.72z"/>
			<g>
				<path style="fill:#407BFF;" d="M162.9,460.029c-0.019-0.137-0.152-0.23-0.281-0.214c-1.006,0.138-1.928,0.733-2.468,1.591
					c-0.074,0.116-0.039,0.27,0.078,0.345c0.042,0.025,0.087,0.038,0.133,0.038c0.083,0,0.164-0.041,0.211-0.117
					c0.462-0.734,1.252-1.243,2.113-1.36C162.823,460.293,162.919,460.166,162.9,460.029z"/>
				<path style="fill:#407BFF;" d="M164.705,460.876c-1.005,0.138-1.928,0.732-2.469,1.59c-0.074,0.117-0.038,0.272,0.078,0.346
					c0.042,0.025,0.087,0.038,0.133,0.038c0.083,0,0.164-0.041,0.211-0.116c0.463-0.735,1.253-1.244,2.113-1.361
					c0.137-0.019,0.233-0.146,0.214-0.282C164.967,460.953,164.838,460.861,164.705,460.876z"/>
				<path style="fill:#407BFF;" d="M165.195,457.449c-0.478-0.338-1.762,0.018-2.857,0.425c0.78-0.641,1.462-1.405,1.396-1.913
					c-0.018-0.185-0.15-0.405-0.608-0.467c-1.72-0.197-2.525,2.658-2.629,3.172c0.021-0.006,0.042-0.01,0.063-0.016
					c-0.019,0.017-0.043,0.027-0.051,0.051c-0.028,0.078,0.012,0.164,0.09,0.191c0.045,0.011,0.091,0.015,0.135,0.025
					c0.13-0.055,0.276-0.13,0.433-0.22c-0.012-0.002-0.028-0.005-0.04-0.007c0.013-0.006,0.027-0.012,0.041-0.017
					c0.004,0.006,0.007,0.012,0.011,0.018c0.035-0.02,0.074-0.047,0.11-0.069c1.388-0.598,3.246-1.231,3.695-0.918
					c0.069,0.043,0.104,0.123,0.088,0.203c-0.014,0.252-0.136,0.486-0.335,0.643c-0.753,0.562-2.547,0.334-3.553,0.151
					c0.012,0.024,0.036,0.039,0.04,0.067c0.013,0.093-0.038,0.167-0.108,0.22c0.663,0.127,1.334,0.215,2.01,0.231
					c0.639,0.061,1.281-0.084,1.831-0.414c0.284-0.204,0.454-0.531,0.458-0.881C165.439,457.737,165.353,457.553,165.195,457.449z
					 M162.94,455.759l0.123,0.009c0.343,0.035,0.343,0.159,0.343,0.203c0.097,0.537-1.444,1.92-2.545,2.501
					C161.091,457.696,161.769,455.759,162.94,455.759z"/>
				<path style="fill:#407BFF;" d="M161.178,458.691c-0.003,0.002-0.007,0.005-0.011,0.007c0.005,0.001,0.011,0.002,0.017,0.003
					C161.182,458.697,161.179,458.695,161.178,458.691z"/>
				<path style="fill:#407BFF;" d="M160.712,458.929l-0.079-0.026c-0.034,0.01-0.071,0.01-0.106,0
					c-0.045-0.039-0.062-0.102-0.044-0.158c0-0.01,0.005-0.039,0.013-0.077c-0.826,0.231-1.564,0.75-2.022,1.478
					c-0.074,0.116-0.039,0.271,0.078,0.345c0.042,0.025,0.087,0.038,0.133,0.038c0.083,0,0.164-0.041,0.212-0.117
					c0.462-0.734,1.252-1.243,2.113-1.36c0.044-0.006,0.073-0.037,0.106-0.062c-0.127-0.024-0.256-0.041-0.382-0.07
					C160.727,458.921,160.719,458.926,160.712,458.929z"/>
			</g>
			<path style="opacity:0.2;enable-background:new    ;" d="M129.289,381.759l0.141-2.189h19.296l-0.357,3.845L129.289,381.759z
				 M154.093,379.57l0.181,0.56l-0.72,3.655l19.169,1.779l0.844-5.994H154.093z"/>
		</g>
		<path style="fill:#407BFF;" d="M127.812,306.797c0,0-7.204,17.367-5.915,29.42c1.292,12.078,3.893,43.354,3.893,43.354h50.225
			c0,0-1.188-18.196-2.639-27.387c-1.451-9.191-4.975-31.865-9.783-40.845C158.784,302.358,127.812,306.797,127.812,306.797z"/>
		<path style="opacity:0.2;enable-background:new    ;" d="M148.991,363.509c-3.279-14.43-8.906-18.399-11.053-20.933l12.804,28.595
			L148.991,363.509z"/>
		<path style="fill:#407BFF;" d="M159.03,279.943c0.097-0.98,0.178-1.935,0.251-2.876l8.949-1.687c0,0-1.521-6.455-5.411-13.842
			c-0.771-1.465-2.065-2.595-3.619-3.165c-0.775-0.284-1.456-0.561-2.073-0.821c-1.247-0.767-2.908-1.406-5.079-2.114
			c-3.205-1.045-6.948-1.88-6.948-1.88l-9.74-0.533c0,0-11.969,2.776-16.542,6.581c-3.463,1.888-5.079,14.17-5.079,14.17
			l8.763,3.798c0.818,2.655,3.489,12.938,3.715,13.873c1.292,5.343,1.434,6.611,1.695,9.662c-0.362,2.392-2.26,8.796-3.06,11.243
			c0,0,12.507,11.921,40.145,0.402l-4.761-12.495C159.402,295.141,158.735,282.924,159.03,279.943z"/>
		<path style="opacity:0.4;" d="M159.03,279.943c0.097-0.98,0.178-1.935,0.251-2.876l8.949-1.687c0,0-1.521-6.455-5.411-13.842
			c-0.771-1.465-2.065-2.595-3.619-3.165c-0.775-0.284-1.456-0.561-2.073-0.821c-1.247-0.767-2.908-1.406-5.079-2.114
			c-3.205-1.045-6.948-1.88-6.948-1.88l-9.74-0.533c0,0-11.969,2.776-16.542,6.581c-3.463,1.888-5.079,14.17-5.079,14.17
			l8.763,3.798c0.818,2.655,3.489,12.938,3.715,13.873c1.292,5.343,1.434,6.611,1.695,9.662c-0.362,2.392-2.26,8.796-3.06,11.243
			c0,0,12.507,11.921,40.145,0.402l-4.761-12.495C159.402,295.141,158.735,282.924,159.03,279.943z"/>
		<path style="fill:#895555;" d="M189.054,268.466c0,0-1.716,1.952-2.63,2.287c-0.66,0.242-3.107,0.64-4.411,0.561
			c-1.384-0.084-1.414-2.227-1.414-2.227l-0.523,0.002c0,0-1.084,0.796-1.554,1.895c-0.435,1.018,0.313,4.195,0.892,5.071
			l-0.433,0.624l-0.075-0.032l-7.622,10.042l-4.407-11.053l-10.636,2.005c0,0,4.895,12.936,7.832,18.357
			c3.205,5.916,8.508,7.386,12.437-1.069c1.698-3.654,3.6-7.278,5.163-10.138l0.031,0.046l3.978-7.15c0,0,3.333-5.253,3.373-6.293
			l-0.13-0.397c0,0,0.488-0.549,0.579-1.342C189.595,268.862,189.054,268.466,189.054,268.466z"/>
		<path style="fill:#B97964;" d="M134.753,239.801c0.855,4.276,2.805,12.827-0.154,15.692c0,0,1.189,4.276,9.09,4.276
			c8.68,0,4.122-4.276,4.122-4.276c-4.746-1.129-4.652-4.644-3.84-7.944L134.753,239.801z"/>
		<path style="fill:#263238;" d="M152.641,231.958c-0.105-0.001-0.206-0.043-0.281-0.116c-0.148-0.151-0.148-0.392,0-0.542
			c0.886-0.857,2.127-1.242,3.342-1.037c0.203,0.047,0.33,0.249,0.284,0.453c-0.001,0.004-0.002,0.008-0.003,0.012
			c-0.043,0.204-0.243,0.335-0.447,0.292c-0.003-0.001-0.005-0.001-0.008-0.002c-0.965-0.17-1.952,0.141-2.645,0.833
			C152.82,231.918,152.733,231.956,152.641,231.958z"/>
		<path style="fill:#773737;" d="M153.823,236.908c0.231,1.591,0.681,3.143,1.337,4.611c-0.769,0.317-1.639,0.274-2.373-0.116
			L153.823,236.908z"/>
		<path style="fill:#263238;" d="M155.964,234.612l-1.628,0.078c0.007,0.011,0.015,0.015,0.022,0.025
			c-0.375-0.008-0.724,0.382-0.865,0.963c-0.145,0.639,0.077,1.24,0.494,1.337c0.417,0.097,0.872-0.339,0.969-0.969
			c0.057-0.37,0.013-0.716-0.109-0.972C155.382,235.17,155.964,234.612,155.964,234.612z"/>
		<path style="fill:#895555;" d="M132.598,228.412c-1.327,7.953-2.054,11.286,0.969,16.246c4.553,7.45,14.589,7.401,18.251,0
			c3.303-6.636,4.911-18.522-2.025-23.453c-4.885-3.535-11.71-2.441-15.245,2.444C133.527,225.058,132.859,226.691,132.598,228.412z
			"/>
		<path style="fill:#263238;" d="M142.372,217.443c6.635-2.726,13.564-0.898,14.232,5.999c0.669,6.898-7.1,13.466-7.1,13.466
			L142.372,217.443z"/>
		<path style="fill:#895555;" d="M145.57,235.348c-0.182,1.553,0.253,3.114,1.211,4.35c1.288,1.618,3.129,0.765,3.778-1.075
			c0.591-1.657,0.62-4.505-1.153-5.464c-1.294-0.666-2.883-0.157-3.549,1.137C145.689,234.623,145.591,234.981,145.57,235.348z"/>
		<path style="opacity:0.3;" d="M148.838,239.37c-0.056,0-0.111-0.019-0.158-0.056c-0.827-0.673-1.328-1.754-1.307-2.82
			c0.009-0.439,0.103-0.789,0.288-1.067c0.249-0.375,0.672-0.584,1.065-0.533c0.137,0.018,0.234,0.143,0.216,0.28
			c-0.018,0.137-0.148,0.232-0.28,0.216c-0.206-0.029-0.443,0.1-0.586,0.314c-0.131,0.196-0.197,0.458-0.204,0.799
			c-0.018,0.917,0.412,1.845,1.123,2.423c0.107,0.087,0.124,0.245,0.036,0.352C148.983,239.339,148.911,239.37,148.838,239.37z"/>
		<path style="opacity:0.3;" d="M119.704,263.455c0.052,0.166,1.924,11.134,5.727,12.135c1.812,0.477,16.351,0.215,16.351,0.215
			l1.288-2.022l2.188,2.022h9.238l-5.279-9.194l0.539-15.014L119.704,263.455z"/>
		<path style="fill:#263238;" d="M148.088,236.695c3.264-6.211,1.413-17.442-5.798-19.547c-6.484-1.893-16.764,0.046-16.376,11.652
			c0.388,11.606-2.322,10.391-5.251,17.844c-3.075,7.825-2.173,18.125,3.027,26.556h14.36l2.62-3.773l3.104,3.773h12.466
			c-6.153-8.537-2.475-11.87-1.729-19.62C155.257,245.83,145.282,242.034,148.088,236.695z"/>
		<path style="fill:#407BFF;" d="M133.324,219.291c-0.384-0.888-1.164-1.688-2.129-1.75c-0.496-0.032-0.98,0.132-1.45,0.294
			l-0.088,0.613c-0.377,0.961-1.152,1.701-1.732,2.555c-0.58,0.854-0.966,1.996-0.473,2.902c0.369,0.678,1.152,1.045,1.92,1.126
			c1.394,0.148,2.833-0.557,3.614-1.721S133.88,220.578,133.324,219.291z"/>
		<path style="fill:#263238;" d="M131.644,223.623c0.473-1.038,0.798-3.403,0.578-4.287c-0.324-1.305-1.239-2.394-2.288-3.234
			c-0.532-0.427-1.113-0.806-1.759-1.024c-1.06-0.358-2.222-0.259-3.314-0.016c-1.238,0.275-2.473,0.755-3.373,1.649
			c-1.221,1.214-1.654,3.157-1.063,4.775c0.591,1.618,2.173,2.825,3.89,2.967c-1.074,0.311-2.097,0.802-3.012,1.445
			c-0.081,0.057-0.167,0.126-0.177,0.224c-0.009,0.093,0.055,0.176,0.121,0.243c0.565,0.582,1.427,0.795,2.236,0.748
			s1.586-0.324,2.349-0.597c-0.236,0.784-0.472,1.569-0.707,2.353c-0.073,0.242-0.146,0.499-0.077,0.742
			c0.155,0.55,0.889,0.666,1.451,0.565c1.72-0.307,3.132-1.616,3.972-3.148C131.05,225.969,131.389,224.807,131.644,223.623z"/>
	</g>
</g>
</svg>
